<?xml version="1.0" standalone="no"?>
<!DOCTYPE svg PUBLIC "-//W3C//DTD SVG 20010904//EN"
 "http://www.w3.org/TR/2001/REC-SVG-20010904/DTD/svg10.dtd">
<svg version="1.0" xmlns="http://www.w3.org/2000/svg"
 width="822.000000pt" height="822.000000pt" viewBox="0 0 822.000000 822.000000"
 preserveAspectRatio="xMidYMid meet">
<metadata>
Created by potrace 1.14, written by Peter Selinger 2001-2017
</metadata>
<g transform="translate(0.000000,822.000000) scale(0.100000,-0.100000)"
fill="#000000" stroke="none">
<path d="M3990 8117 c-101 -28 -162 -54 -227 -98 -135 -90 -230 -225 -280
-394 -16 -54 -18 -122 -21 -635 l-4 -575 -27 80 c-144 416 -499 727 -928 814
-113 23 -340 29 -450 11 -455 -74 -848 -414 -987 -855 -73 -231 -75 -504 -4
-740 72 -240 245 -484 452 -637 95 -69 244 -147 344 -179 40 -13 71 -28 69
-34 -2 -6 -117 -11 -340 -13 l-337 -2 0 55 0 55 -425 0 -425 0 0 -99 0 -98
-31 -7 c-64 -12 -164 -71 -226 -132 -45 -44 -73 -83 -100 -140 l-38 -79 0
-330 0 -330 39 -77 c62 -125 203 -241 328 -272 l28 -6 0 -100 0 -100 410 0
410 0 6 25 c3 14 4 39 2 55 l-5 30 349 -2 349 -3 48 -120 c26 -66 60 -144 75
-174 15 -29 24 -57 19 -61 -4 -4 -45 -14 -90 -24 -200 -41 -454 -142 -594
-236 -211 -142 -351 -327 -411 -546 -18 -67 -22 -105 -22 -254 0 -149 4 -187
22 -255 77 -284 270 -457 527 -472 44 -3 99 0 122 5 l43 10 6 -37 c37 -226
194 -384 449 -452 119 -32 358 -33 468 -1 350 100 565 381 648 847 10 61 22
156 26 213 3 56 6 102 7 102 1 0 39 -16 86 -34 l85 -34 6 -554 c5 -542 6 -554
28 -623 69 -212 195 -356 386 -445 136 -64 202 -75 430 -75 179 0 208 2 280
23 147 42 238 94 335 191 98 97 143 170 186 301 l28 85 4 417 4 418 26 -14
c72 -37 164 -56 273 -56 l109 0 0 -110 c0 -322 124 -504 368 -541 112 -17 643
-7 703 14 151 51 233 134 291 297 15 41 22 90 25 197 l5 142 162 3 c159 3 162
3 228 36 80 39 162 124 202 208 48 101 56 163 56 461 0 238 -2 279 -19 332
-24 77 -70 149 -145 228 -39 41 -54 64 -45 67 8 2 66 18 129 35 219 60 433
189 549 333 66 81 134 220 160 327 43 176 23 448 -44 581 -23 45 -23 45 -4 82
10 20 31 78 45 128 25 87 26 100 21 263 -5 195 -20 265 -87 402 -117 242 -351
398 -673 450 -289 47 -595 -20 -882 -192 l-90 -54 292 293 293 293 45 -45 45
-45 295 295 295 294 -32 33 -32 33 214 215 215 215 -568 567 -567 568 -215
-215 c-210 -210 -214 -214 -234 -196 -19 18 -21 17 -49 -5 -16 -13 -152 -139
-301 -279 l-271 -254 35 -36 35 -35 -299 -299 -298 -298 -89 45 c-49 24 -133
61 -186 81 l-97 38 -3 581 c-4 576 -4 583 -27 652 -83 253 -231 399 -481 477
-52 17 -100 21 -245 24 -164 4 -187 2 -265 -19z m429 -402 c70 -32 132 -93
164 -163 22 -47 22 -52 22 -687 0 -604 -1 -643 -19 -689 -22 -58 -74 -119
-135 -158 -25 -15 -39 -28 -32 -28 47 0 244 -36 336 -61 188 -52 349 -122 516
-225 74 -46 91 -53 107 -43 10 6 274 267 588 580 l569 568 -78 79 -77 78 30
29 31 29 434 -434 435 -435 -30 -30 -30 -30 -90 90 -90 89 -527 -524 c-291
-288 -558 -554 -596 -591 l-67 -67 36 -62 c123 -210 219 -513 239 -753 4 -48
11 -87 15 -87 4 0 12 12 19 26 6 14 40 69 76 123 181 270 383 469 598 586 l67
37 0 -129 c0 -88 4 -134 13 -145 6 -8 43 -28 80 -43 37 -16 64 -32 60 -36 -4
-4 -100 -35 -213 -69 -228 -69 -235 -72 -250 -100 -22 -42 17 -60 327 -150
161 -47 289 -88 285 -92 -4 -3 -72 -25 -152 -48 -398 -114 -526 -153 -538
-163 -7 -5 -12 -24 -10 -41 3 -29 10 -33 198 -117 l195 -87 3 -163 c1 -99 7
-168 13 -176 17 -20 67 -16 79 6 12 23 14 370 2 389 -5 7 -69 40 -143 73 -74
33 -137 64 -141 68 -5 4 153 53 350 110 196 56 365 110 374 118 23 20 23 46 1
65 -10 9 -151 55 -313 103 -162 47 -296 88 -298 90 -4 3 45 19 326 105 84 26
105 37 115 57 8 17 8 30 0 41 -5 9 -66 40 -134 69 l-124 52 -3 124 -3 124 63
14 c87 19 267 17 347 -5 241 -65 375 -238 388 -497 9 -173 -40 -330 -117 -375
-16 -10 -30 -21 -30 -24 0 -3 14 -14 30 -24 77 -45 126 -202 117 -375 -13
-259 -147 -431 -388 -497 -97 -27 -281 -25 -384 4 -284 81 -561 316 -798 677
-36 55 -72 109 -80 119 -12 18 -14 9 -20 -82 -9 -131 -38 -281 -83 -423 -29
-94 -66 -177 -172 -392 -2 -5 10 -2 26 7 26 13 74 16 297 16 289 0 310 -3 333
-55 9 -19 12 -255 12 -950 l0 -925 -29 -32 -29 -33 -287 0 -287 0 -29 33 -29
33 2 939 c2 629 0 936 -7 926 -5 -8 -39 -56 -75 -107 -82 -117 -240 -282 -363
-379 l-96 -75 197 -5 c166 -4 197 -7 197 -20 0 -13 -34 -16 -222 -20 -215 -5
-223 -6 -245 -28 -23 -22 -23 -27 -26 -281 -4 -286 2 -322 53 -341 15 -6 121
-10 236 -10 195 0 210 -1 207 -18 -3 -16 -22 -17 -230 -17 -325 0 -311 -18
-306 388 2 147 1 266 -2 264 -53 -32 -236 -111 -340 -147 l-135 -46 -5 -750
c-5 -743 -5 -749 -27 -796 -34 -74 -103 -140 -185 -179 -73 -34 -73 -34 -223
-34 -135 0 -157 2 -215 24 -87 33 -176 120 -211 206 l-24 60 -3 731 -3 731
-67 18 c-393 104 -773 358 -1023 686 -162 213 -290 487 -343 732 l-6 27 -755
0 -754 0 -3 -57 -3 -58 -50 0 -50 0 -3 513 -2 512 55 0 55 0 0 -80 0 -80 750
0 750 0 6 28 c119 543 429 978 899 1262 197 119 489 222 700 246 33 3 64 9 68
11 5 3 -14 18 -41 34 -60 34 -97 76 -131 149 l-26 55 0 630 0 630 24 59 c40
100 129 172 244 196 23 5 85 8 139 6 78 -3 107 -9 157 -31z m3109 -1002 l-32
-33 -45 45 -45 45 -117 -115 c-64 -63 -122 -115 -130 -115 -7 0 -91 78 -186
173 -95 95 -173 179 -173 186 0 8 52 67 115 131 l115 116 -45 44 -45 44 32 33
32 33 278 -277 278 -277 -32 -33z m-5152 191 c44 -21 64 -59 64 -123 0 -61 14
-101 36 -101 9 0 43 23 76 50 50 42 66 50 101 50 39 0 47 -6 149 -108 93 -93
108 -112 108 -141 0 -43 -13 -66 -67 -122 -39 -41 -44 -49 -34 -68 10 -18 21
-21 84 -21 126 0 147 -31 147 -215 0 -183 -16 -206 -150 -215 -70 -5 -75 -7
-78 -29 -3 -17 8 -36 36 -65 65 -67 77 -109 48 -164 -17 -32 -161 -175 -193
-191 -50 -25 -92 -12 -160 50 -72 66 -103 46 -103 -68 0 -49 -4 -59 -34 -89
l-34 -34 -136 0 c-81 0 -145 5 -160 12 -41 18 -58 55 -65 136 -9 106 -24 113
-94 44 -63 -62 -104 -74 -160 -47 -43 20 -183 164 -198 203 -17 45 -2 89 52
148 27 30 49 58 49 62 0 21 -29 32 -83 32 -70 0 -117 20 -140 59 -23 40 -25
267 -2 311 21 41 63 60 134 60 57 0 91 15 91 40 0 5 -21 30 -46 57 -93 98 -88
126 50 261 93 92 107 102 140 102 47 0 70 -12 122 -62 62 -59 78 -51 84 43 10
134 42 158 218 159 85 0 123 -4 148 -16z m-1773 -2565 l27 -29 0 -216 c0 -174
-3 -221 -15 -245 -37 -70 -164 -64 -194 9 -9 20 -11 93 -9 245 3 211 3 216 27
241 43 45 119 43 164 -5z m2200 -1670 c30 -14 50 -54 41 -83 -3 -11 -22 -37
-40 -57 l-35 -36 32 -78 c42 -107 79 -255 86 -346 5 -69 4 -78 -16 -98 -41
-41 -114 -17 -125 41 -2 13 -13 73 -25 134 -22 118 -73 266 -102 295 -25 25
-108 33 -298 26 -162 -5 -164 -5 -187 19 -30 30 -30 68 0 98 18 19 39 26 102
32 115 11 268 9 352 -5 l73 -13 44 41 c47 44 60 47 98 30z m-793 -134 c24 -28
3 -53 -52 -60 -227 -32 -451 -205 -505 -390 -6 -23 -14 -30 -33 -30 -39 0 -40
61 -1 139 74 150 281 299 475 341 81 18 101 18 116 0z m5190 -50 c46 -41 50
-68 50 -347 0 -382 11 -370 -320 -366 -183 3 -215 5 -215 18 0 13 34 16 222
20 215 5 223 6 245 28 23 22 23 27 26 298 l3 275 -30 29 -29 30 -216 0 c-132
0 -217 4 -221 10 -17 27 12 31 235 28 211 -3 230 -4 250 -23z m-5752 -527 c13
-15 23 -43 28 -78 8 -64 39 -153 65 -192 53 -74 -25 -164 -98 -113 -52 37
-115 201 -117 307 -1 51 2 62 23 79 31 26 73 24 99 -3z m1422 -108 c23 -14 26
-190 5 -288 -21 -95 -88 -239 -144 -310 -77 -97 -182 -142 -189 -82 -2 21 5
29 43 49 58 31 117 103 166 206 52 107 72 205 66 322 -5 107 8 132 53 103z
m-678 -666 c47 -12 85 -15 151 -10 85 7 88 6 113 -19 21 -21 25 -32 20 -58 -9
-43 -26 -58 -78 -68 -141 -27 -319 7 -347 67 -16 35 -14 47 10 78 24 30 44 32
131 10z"/>
<path d="M4171 7574 c-53 -37 -51 4 -51 -1214 0 -1218 -2 -1177 51 -1214 36
-25 102 -21 136 8 l28 24 5 564 5 563 65 3 c67 3 100 20 100 52 0 34 -33 50
-104 50 l-67 0 3 73 3 72 73 5 c91 6 117 35 72 80 -16 16 -33 20 -85 20 l-66
0 3 73 3 72 73 3 c65 3 74 5 83 26 8 17 8 29 0 44 -10 18 -22 22 -84 24 l-72
3 -3 73 -3 72 66 0 c52 0 69 4 85 20 45 45 19 74 -72 80 l-73 5 0 70 0 70 65
3 c67 3 100 20 100 52 0 34 -33 50 -103 50 l-67 0 0 66 c0 59 -3 68 -29 95
-24 23 -38 29 -73 29 -24 0 -54 -7 -67 -16z m94 -146 c3 -13 4 -389 3 -837 -3
-747 -4 -815 -20 -824 -12 -8 -21 -7 -32 2 -14 12 -16 98 -16 841 0 454 3 830
7 833 16 16 53 6 58 -15z"/>
<path d="M6370 6525 l-225 -225 133 -133 c72 -73 132 -137 132 -142 0 -6 -204
-213 -452 -462 -363 -360 -461 -453 -492 -463 -84 -27 -215 7 -333 86 -36 24
-68 43 -70 41 -10 -10 163 -134 242 -173 143 -70 253 -78 339 -24 17 10 326
314 686 675 l655 655 -195 195 -195 195 -225 -225z"/>
<path d="M5946 6114 c-32 -31 -19 -58 73 -147 49 -48 94 -87 100 -87 28 0 51
22 51 48 0 20 -21 48 -87 114 -48 49 -95 88 -105 88 -9 0 -24 -7 -32 -16z"/>
<path d="M5742 5898 c-26 -26 -11 -54 78 -143 84 -84 91 -88 117 -79 20 7 29
17 31 38 3 24 -9 41 -80 112 -85 85 -117 101 -146 72z"/>
<path d="M5536 5678 c-9 -12 -16 -27 -16 -32 0 -4 39 -48 87 -97 68 -70 93
-89 114 -89 27 0 49 23 49 51 0 6 -39 51 -87 100 -92 95 -119 107 -147 67z"/>
<path d="M4935 4869 c-115 -121 -256 -265 -312 -321 -57 -55 -103 -105 -103
-109 0 -5 -36 -9 -80 -9 l-79 0 -3 123 -3 122 -68 3 -68 3 3 -328 3 -328 28
-61 c56 -121 156 -188 282 -188 278 -1 413 357 211 560 -31 30 -68 56 -94 65
-23 8 -42 18 -43 22 0 4 133 146 296 314 l295 306 -22 24 c-12 13 -24 23 -27
22 -3 0 -100 -99 -216 -220z m-327 -600 c60 -29 95 -85 100 -157 11 -170 -174
-262 -297 -149 -41 38 -51 77 -51 207 l0 120 102 0 c83 0 110 -4 146 -21z"/>
<path d="M2663 4412 c-78 -28 -136 -81 -175 -159 -30 -62 -33 -76 -36 -180
l-4 -113 -464 0 -464 0 -2 188 -3 187 -320 0 -320 0 -3 -264 c-1 -146 1 -268
6 -273 11 -11 1990 -11 2030 1 26 8 32 7 32 -5 0 -11 15 -14 65 -14 l65 0 0
64 c0 50 6 78 30 127 35 75 70 206 70 261 0 32 4 40 26 48 69 26 157 -5 201
-71 28 -42 28 -43 31 -236 l4 -193 64 0 65 0 -3 208 c-3 196 -4 210 -27 257
-32 63 -99 131 -159 158 -35 16 -66 22 -122 22 -89 0 -146 -22 -205 -81 l-40
-39 -39 39 c-78 77 -201 104 -303 68z m174 -141 c26 -12 52 -35 70 -62 25 -38
28 -52 31 -145 l4 -104 -182 0 -182 0 4 98 c3 84 7 104 30 144 48 80 138 108
225 69z m306 -63 c-8 -29 -27 -75 -42 -103 l-26 -50 -3 37 c-4 44 32 133 62
153 11 8 21 15 23 15 1 0 -5 -24 -14 -52z"/>
<path d="M3592 4218 c3 -200 4 -216 27 -260 32 -66 93 -125 158 -155 46 -21
65 -25 131 -21 125 6 208 61 264 176 l33 67 3 203 4 203 -69 -3 -68 -3 -5
-195 c-6 -218 -12 -242 -81 -288 -29 -20 -44 -23 -99 -20 -72 4 -102 20 -141
77 -23 33 -24 43 -27 233 l-3 198 -65 0 -65 0 3 -212z"/>
<path d="M5100 4416 c-103 -27 -188 -110 -220 -214 -25 -81 -25 -123 0 -205
25 -80 89 -156 164 -194 67 -34 177 -37 246 -6 50 22 140 98 140 117 0 6 -19
31 -43 54 l-43 42 -42 -39 c-24 -23 -60 -45 -84 -51 -40 -11 -108 -6 -108 8 0
4 72 83 160 177 88 93 160 174 160 180 0 13 -51 62 -96 93 -32 22 -132 53
-169 51 -11 0 -40 -6 -65 -13z m130 -143 c10 -9 -218 -249 -227 -239 -13 12
-6 122 9 151 34 65 107 108 172 101 21 -2 42 -8 46 -13z"/>
<path d="M5562 4409 c-120 -60 -143 -232 -43 -322 54 -48 92 -57 256 -57 96 0
145 -4 153 -12 16 -16 15 -73 -1 -87 -9 -7 -85 -12 -208 -13 l-194 -3 -3 -67
-3 -68 211 0 c222 0 233 2 283 49 45 41 60 79 61 149 0 53 -5 68 -30 104 -16
24 -48 53 -69 65 -37 21 -53 23 -190 23 -168 0 -195 8 -195 59 0 57 17 61 233
61 l197 0 0 70 0 70 -207 0 c-193 0 -211 -2 -251 -21z"/>
<path d="M3655 3751 c-50 -22 -91 -69 -105 -119 -13 -47 -12 -69 4 -113 11
-31 10 -40 -5 -69 -15 -28 -230 -255 -233 -248 -35 71 -70 98 -126 98 -136 0
-174 -188 -50 -240 l32 -13 -126 -126 c-69 -70 -126 -134 -126 -142 0 -26 26
-42 48 -30 10 5 151 145 312 311 183 188 307 307 329 317 23 10 67 16 117 17
72 1 84 4 118 30 69 52 97 127 76 204 -21 81 -101 142 -185 142 -22 0 -58 -9
-80 -19z m161 -95 c59 -58 59 -90 3 -151 -37 -40 -47 -45 -84 -45 -37 0 -47 5
-84 45 -56 61 -56 93 3 151 36 36 50 44 81 44 31 0 45 -8 81 -44z m-586 -441
c16 -20 16 -61 0 -80 -21 -25 -72 -15 -89 16 -13 24 -13 29 2 53 20 30 67 36
87 11z"/>
<path d="M3704 3660 c-85 -35 -60 -164 31 -164 72 0 111 84 63 138 -26 29 -63
39 -94 26z"/>
<path d="M4336 2581 c76 -35 141 -93 165 -146 17 -36 19 -73 19 -387 l0 -348
50 0 51 0 -3 348 -3 348 -26 49 c-42 82 -144 143 -264 159 l-50 6 61 -29z"/>
<path d="M6008 2508 c-24 -20 -28 -44 -12 -67 15 -20 23 -21 229 -21 210 0
214 0 229 22 20 29 20 34 -4 58 -19 19 -33 20 -223 20 -148 0 -207 -3 -219
-12z"/>
<path d="M6010 2322 c-25 -20 -30 -63 -10 -87 19 -23 76 -19 94 7 22 31 20 45
-9 73 -29 30 -45 31 -75 7z"/>
<path d="M6372 2324 c-25 -17 -31 -71 -10 -92 21 -21 75 -15 92 10 22 31 20
45 -9 73 -28 29 -42 31 -73 9z"/>
<path d="M6186 2184 c-35 -35 -8 -104 42 -104 28 0 64 47 56 74 -13 44 -68 61
-98 30z"/>
<path d="M6010 2052 c-25 -20 -30 -63 -10 -87 15 -18 74 -20 88 -2 24 30 23
56 -2 82 -30 30 -46 31 -76 7z"/>
<path d="M6372 2054 c-25 -17 -31 -71 -10 -92 21 -21 75 -15 92 10 22 31 20
45 -9 73 -28 29 -42 31 -73 9z"/>
<path d="M6006 1847 c-34 -34 -25 -64 23 -78 22 -7 107 -9 224 -7 173 3 190 5
203 22 18 25 18 37 0 62 -13 18 -30 19 -220 22 l-206 3 -24 -24z"/>
<path d="M3940 1208 c0 -412 0 -413 24 -463 30 -66 99 -128 167 -151 74 -25
214 -24 294 1 45 14 73 32 111 70 84 83 84 84 84 552 l0 403 -340 0 -340 0 0
-412z"/>
<path d="M2117 6814 c-4 -4 -7 -41 -7 -81 0 -41 -5 -83 -11 -94 -11 -22 -109
-69 -142 -69 -13 0 -47 26 -84 62 l-63 62 -80 -79 c-44 -44 -80 -84 -80 -89 0
-5 27 -38 61 -73 67 -70 67 -66 20 -163 l-26 -55 -85 -3 c-46 -2 -90 -8 -97
-14 -14 -11 -19 -181 -7 -212 5 -13 23 -16 88 -16 51 0 88 -5 98 -12 9 -7 28
-41 42 -75 31 -75 28 -89 -43 -158 -28 -27 -51 -54 -51 -60 0 -15 143 -155
158 -155 7 0 42 27 77 60 35 33 66 60 68 60 10 0 133 -53 142 -61 6 -6 12 -51
15 -102 l5 -92 95 -3 c145 -4 139 -9 142 101 l3 92 55 27 c82 40 102 37 173
-27 33 -30 65 -55 71 -55 17 0 156 143 156 160 0 9 -25 40 -55 70 -34 34 -55
63 -55 77 0 29 44 128 61 139 8 5 52 11 99 14 l85 5 3 104 c2 66 -1 108 -9
117 -7 9 -40 14 -97 16 l-87 3 -27 55 c-41 84 -38 106 27 170 30 30 55 62 55
70 0 15 -140 160 -154 160 -4 0 -36 -27 -71 -60 -35 -33 -73 -60 -84 -60 -17
0 -129 45 -141 57 -3 2 -7 46 -10 96 l-5 92 -111 3 c-60 1 -113 -1 -117 -4z"/>
</g>
</svg>
