<svg version="1" xmlns="http://www.w3.org/2000/svg" width="1333.333" height="1333.333" viewBox="0 0 1000.000000 1000.000000"><path d="M497.5 11.1c-9.5 2.4-15.1 5.5-21.3 11.6-5.5 5.5-10.3 14.3-12.1 22.3-1.2 5.1-1 166.9.2 171 .3 1.4 2.3 5.7 4.2 9.7 3.9 7.8 10.7 14.8 18.4 18.8 4.5 2.4 4.5 2.4 1.6 2.5-1.6.1-3.9.3-5 .5s-4 .7-6.5 1c-2.5.3-5.2.8-6 1-.8.2-2.9.7-4.7 1-1.8.3-8.4 1.9-14.8 3.5-33.4 8.6-68.5 26.5-96.2 49.1-3.9 3.3-7.4 5.9-7.8 5.9-.4 0 .6-1.7 2.3-3.8 9.7-12.5 18.1-33.1 21.9-53.7 1.5-8 .8-32.6-1.1-42-3.8-18.4-11.9-36.7-22.4-50.7-5.8-7.8-16.4-18.6-22.8-23.4-2.1-1.6-4.1-3.1-4.4-3.4-.3-.3-3.4-2.4-7-4.6-19.4-12-42.1-18.5-64.5-18.7-34.4-.1-64.6 12.3-89 36.8-10.6 10.6-17.5 20-23.7 32.6-3.6 7.2-10.2 24.9-9.3 24.9.3 0 .1 1-.4 2.3-.5 1.3-1.2 4.8-1.6 7.7-.4 2.9-.9 6.2-1.1 7.4-.5 2.9-.6 22.6 0 25.6.2 1.4.7 4.3 1 6.5 4.7 37.1 32.9 75.5 67.7 92.2 19.1 9.2 34.2 12.6 54.9 12.6 8 0 15.9-.3 17.5-.7 1.7-.3 4.8-.9 7-1.2 11.9-1.8 33.5-10.8 45-18.8 3.3-2.3 6.7-4.6 7.5-5.1.8-.5-1.6 2.7-5.3 7-13.4 15.7-31.7 45.8-39.3 64.7-6.4 15.9-14.8 43.5-14.6 48 0 1-.4 2.1-1 2.4-1.3.8-199.2.9-200.5.1-.4-.3-.8-5.1-.7-10.6l.1-10.2-7.6.3-7.6.3-.1 68.5c0 37.7.1 69 .3 69.5.4 1.2 12.1 1.4 13.8.3.6-.4 1.1-3.6 1-7.3-.1-5.8.2-6.6 2-7 1.1-.2 46.7-.3 101.3-.2l99.4.2 2.8 11.1c6.1 23.8 18.6 52.1 32.2 73.2 3.5 5.3 6.8 10.4 7.5 11.2 15.2 19.5 30.7 36.3 41.3 44.9 2.5 2 4.7 3.9 5 4.2 1.6 1.9 19.7 14.9 27.4 19.6 22.3 13.8 44.9 23.3 74.3 31.2l3.8 1v95.8c0 106.4-.2 103.1 6.6 115.2 6.7 11.9 20.5 21.3 35.9 24.4 7.2 1.5 30.7 1.7 35.5.4 14.9-4.1 24.5-9.3 31-16.9 4.4-5.2 10-16.7 11.1-22.8.4-2.5.8-47.9.8-100.9l.1-96.4 15-4.8c8.3-2.7 16.4-5.5 18-6.3 10.2-4.8 18.7-8.6 19.4-8.6.5 0 1.9-.8 3.2-1.8 1.3-1 3.6-2.3 5.1-2.9l2.6-1.2v37.2c0 23.7.4 38.2 1 39.9 1.7 4.1 7.8 9.6 11.4 10.3 1.8.3 16.1.4 31.8.3 26.8-.3 28.5-.4 28.8-2.2.8-3.9-.9-4.1-29.7-4.2-30.6 0-32.8-.4-35.2-5.7-2-4.3-2-72.9-.1-76.4 2.7-4.8 4.8-5.2 35-5.2 15.5 0 28.7-.3 29.2-.6 1.4-.9 1.2-4.2-.2-5.2-.7-.4-12.4-.8-26-.8s-25-.4-25.4-.8c-.4-.4-.3-.7.3-.7 1.1 0 15.5-10.9 21.8-16.5 9.4-8.3 21-20.2 28.5-29.5 2.5-3 4.7-5.7 5-6 1.3-1.3 8.8-11.8 10.5-14.8 1.1-1.7 2.3-3.2 2.7-3.2.4 0 .8-.6.8-1.4 0-.8.5-1.8 1.2-2.2.7-.4.8-.3.4.5-1.1 1.7-.9 248.3.2 251.2 1.4 3.5 5.5 7 9.4 7.8 1.8.4 19.3.7 38.8.7l35.5-.1 3.4-2.4c6.4-4.6 6 2.9 6-131.2.1-67.3-.2-123.8-.5-125.6-.8-4.2-5.5-9-9.6-9.8-1.8-.3-19.6-.5-39.4-.3-34 .3-36.3.4-38.3 2.2-2.9 2.7-2.6 1.4 1.2-5.2 6.6-11.5 18.8-40.2 21.3-50 .2-.9 1.7-6.9 3.3-13.2 1.6-6.3 3.2-13.8 3.5-16.5.4-2.8.9-5.9 1.2-7 .6-2.5 1.1-7.5 2-19 .4-5 .8-9.1.9-9.3.1-.1 2.4 3.2 5 7.5 4.7 7.6 13.8 21.3 16.2 24.3 26.3 33.3 42 48.3 65.3 62.4 20.5 12.4 39.6 17.6 61.9 17.2 14.1-.4 21.7-1.7 31.8-5.8 11.4-4.6 16.5-8 25.1-16.8 8.7-9 16-24.8 18.1-39.2 1-6.8.8-22.7-.4-29.3-2.4-13.9-9.8-27.5-16.8-31.2l-2.9-1.5 2.8-1.8c10.8-6.6 17.4-23.4 17.9-44.8.1-6.7-.2-14.4-.7-17-.5-2.6-1.1-5.8-1.4-7.2-.3-1.3-1.9-5.6-3.5-9.6-9.3-22.3-25.7-35.9-49.9-41.5-11.6-2.7-28.6-3-40.5-.8-13.6 2.6-12.3.5-12.4 19.7v16.7l17.2 7.1c14.3 5.8 17.4 7.4 18.5 9.7 1.1 2.2 1.1 3.2 0 5.4-1.5 3.1-.8 2.8-25.3 10.4-8.8 2.7-19.5 6.1-23.8 7.4-4.3 1.4-8.5 2.5-9.3 2.5-1.4 0-2 1.9-.6 2.1 1.6.1 5.8 1.3 14.2 3.8 8.1 2.4 29.5 8.8 46 13.6 21.1 6.1 22 6.5 23.1 9.2 1.5 4 0 7.3-4 9-3 1.3-19.7 6.3-30.6 9.2-7 1.9-65.8 19.1-66.1 19.3-.1.2 8.5 4.1 19.1 8.8 10.6 4.6 19.8 9.3 20.5 10.3.8 1.3 1.1 9.7 1.1 26.9.1 21.7-.2 25.2-1.6 26.8-2.6 2.9-6.3 3.1-9.3.5l-2.6-2.2-.1-21.6c0-11.9-.3-21.8-.6-22.1-.3-.3-9.3-4.4-20-9.2-28.8-12.8-30.2-13.4-32.1-15.1-2.5-2.2-2.2-6.6.5-9 1.4-1.3 15.9-5.9 41.2-13.1 21.5-6.2 42.3-12.3 46.4-13.5l7.4-2.3-14.9-4.3c-8.2-2.4-17.6-5.2-20.9-6.2-3.3-1-11.4-3.4-18-5.3-31-8.9-31.4-9.1-31.5-14.2 0-3.9 3.2-6.2 12.5-9 5-1.5 9.5-2.9 10-3 1.4-.2 24.6-7.4 26.5-8.1.8-.4 1.7-.7 2-.8.3-.1 3.3-.9 6.8-2 5.8-1.6 9-3.5 6.1-3.5-.7 0-5.2-1.7-10.2-3.8-6.3-2.6-9.2-4.4-10.1-6.2-.9-1.7-1.2-7.8-1.1-19.3.1-9.2 0-16.7-.2-16.7-1.2 0-14.1 7.1-20.8 11.4-11.3 7.4-19.3 14.1-32.5 27.5-16.5 16.5-35 40.6-45 58.4-1.8 3.2-3.4 5.7-3.5 5.5-.2-.2-.6-3-.9-6.3-1.1-10.2-2.2-18.7-3.2-23.9-5.6-29.6-16.2-59-29.5-81.8-2.1-3.6-3.9-7.2-3.9-7.8 0-.7 35.7-36.7 79.3-80.1l79.2-78.8 12.1 12 12.1 12 4.6-4.4 4.5-4.5-59.1-59.1-59.1-59.2-4.5 4.5-4.6 4.6 10.3 10.3c5.6 5.6 10.2 10.5 10.2 10.9 0 .8-154.7 155.1-155.9 155.6-.5.1-5.7-2.8-11.7-6.6-31.8-20.2-68.5-33.4-104.9-37.9-2.7-.3-5.7-.7-6.5-.9-.8-.1-2.2-.3-3-.3-.8-.1 1-1.5 4-3.3 10.5-6 18-17 20.4-29.7 1.3-7.5 1.5-159.2.2-167.1-2-11.6-11.3-24.8-21.5-30.4-11.7-6.3-32-8.3-46.6-4.5zm26.2 22.5c5.2 4 5.9 6.3 6.2 20.6.1 2.7.2 2.8 5.9 2.7 10.1-.2 12.2.1 14.2 2.1 2.7 2.7 2.5 6.7-.4 9.3-2 1.8-3.7 2.1-11.1 2.2h-8.8v19l9.7.5c10.5.5 11.6 1.2 12.4 7.1.5 4.6-2.8 6.3-12.4 6.4-4.6.1-8.6.4-9 .7-.8.8-.9 17.2-.1 18.4.3.5 4.2.9 8.6.8 9.3-.2 11.7 1 12.7 6.2.5 2.5.1 3.6-1.7 5.3-2 1.8-3.5 2.1-11.1 2.1-7.1 0-8.8.3-8.9 1.5v16.3c.1 1.7 1.1 1.9 9.2 2 10.1.1 11.4.7 12.5 5.9.5 2.6.2 3.6-1.9 5.5-2.2 2.1-3.3 2.3-11.1 2.2-9.7-.2-8.8-1.2-8.8 9.6.1 11.1-1 10 9.1 10 8.5 0 9.1.1 11 2.6 2.7 3.4 2.6 5.9-.2 8.8-2 2-3.2 2.2-11 2.2-5.1-.1-8.7.3-8.8.9 0 .5-.1 34.1-.2 74.5-.2 71.5-.3 73.6-2.2 76.9-2.9 4.9-7.9 7.3-13.8 6.8-5.7-.5-9.5-3-11.9-7.8-1.7-3.1-1.8-13.1-1.8-157.7 0-166.3-.3-158.1 5.1-163.1 4.9-4.5 13-4.8 18.6-.5zM266.5 134.3c20.1 4.9 33.6 11.3 46.1 21.9 10.8 9.2 21.5 23.3 27.1 35.8 22.1 49.1 1.2 107-47.3 131.3-5.5 2.8-18.9 7.2-24.4 8.2-1.9.3-5.1.8-7 1.1-6.9 1.2-22.7.6-31.4-1-39.8-7.6-70.7-38.1-79.6-78.6-2.6-11.5-2-30.2 1.4-45.5 3.1-14.2 14.1-33.1 26.1-45 7.8-7.7 9.6-9.1 17.5-14.1 11.1-7 22.9-11.7 35.3-13.9 6.8-1.3 31.4-1.4 36.2-.2zm592.1 36.6c13.7 13.8 25 25.4 25.1 25.8.2.4-39.4 40.5-87.9 89C696.4 384.9 702.1 380 686 380c-9 .1-17.5-2.5-28.8-8.5l-6.7-3.5-12.5 12.9c-6.9 7.1-21.3 22-32 33.1-10.7 11.1-23.1 23.9-27.5 28.5-4.4 4.5-11.3 11.7-15.4 15.9-8 8.4-7.7 8.5-5.6-1.6 1.5-7.7 3.6-10.3 24.5-31.9 53.8-55.6 60-62.1 60-62.8 0-.3-2.5-2.4-5.6-4.6-8.8-6.3-8.7-7.4.1-1.5 11.7 7.9 25 12.4 36.2 12.3 10.7-.2 9.9.5 75.6-65.4l61-61.1-18.2-18.2-18.2-18.2 29.7-29.7c16.3-16.3 30-29.7 30.4-29.7.4 0 11.9 11.2 25.6 24.9zm-94.3 68.9c12.5 12.7 13.8 15.1 9.7 19.2-4.2 4.2-6.7 2.9-19.3-9.7-12.6-12.6-13.8-15.2-9.7-19.3 4.2-4.2 6.7-2.9 19.3 9.8zm-27 29c7.2 7.3 11.7 12.7 11.7 13.9 0 3-3.8 7.3-6.5 7.3-1.3 0-3.7-1.1-5.3-2.5-6.8-5.7-20.7-20.6-21.3-22.7-.3-1.3.1-3.5 1-5.1 1.2-2.1 2.3-2.7 5.1-2.7 3.3 0 4.7 1.1 15.3 11.8zm-27.4 28.6c9.9 9.9 11.4 11.9 11.4 14.7 0 6.2-6.6 8.6-11.5 4.2-7.1-6.3-20.2-20.1-20.9-22-1.8-4.8 2.5-9.6 7.6-8.7 1.1.2 7.1 5.5 13.4 11.8zM525 460.2c9.8 3 18.7 9.6 23.9 17.7 15 23.3 4.5 54.5-21.4 63.6-7.1 2.5-21.5 2.6-27.8.2l-4.8-1.9-6 6.1c-8.1 8.2-10.2 8.2-18 .3-7.2-7.5-7.2-9.3.5-17.1 5.2-5.4 5.4-5.7 4.1-8.1-2.7-4.7-4.6-13.3-4.6-20 0-21 15.5-38.8 36.1-41.7 1.9-.3 3.6-.6 3.7-.7.6-.6 11.1.6 14.3 1.6zm-376.4 34.3c.1 13.7.2 25.3.3 25.7 0 .5 43 .8 95.4.8 108.7 0 101.1.6 110.2-8.6 5.2-5.2 6.7-7.3 10-14.4 2-4.4 5.4-14.6 6.1-18.5.3-1.6.7-3.1 1-3.4 1.7-1.7-1.6 18.7-4.7 29.4-5.7 19.1-17.9 32.9-32.1 36.1-1.7.4-258.8.8-269.3.5-2-.1-2-.7-1.9-36.4.1-19.9.2-36.2.3-36.3h42.3l42.3.1.1 25zM459 563.4c0 1.4-6 8.2-16.8 19.3-9.2 9.4-27.5 28.3-40.7 41.9-13.2 13.6-30.1 30.9-37.4 38.6-14.2 14.5-16.5 15.9-19.5 11.6-2.1-3-1.2-4.4 11.9-17.8 22.3-22.8 26.5-27.2 25.9-28.1-.3-.5-.9-.7-1.3-.4-1.8 1-11.9-2.9-16.8-6.6-9-6.7-13.4-19.3-10.9-30.9 2-8.8 9.8-17.7 18.6-21.1 6.2-2.5 15.7-2.8 20.5-.8 1.7.7 3.2 1.3 3.5 1.3 1.3.2 7.8 5.3 10.2 7.9 3.5 3.9 6.7 10.6 7 15.1.1 2 .5 3.6.8 3.6.4 0 8.9-8.4 19-18.8 10.1-10.3 19.3-19 20.4-19.3 2.6-.7 5.6 1.7 5.6 4.5zm75.7 141c16.4 4.4 26.7 13.4 30.4 26.6.9 3.3 1.3 16.7 1.3 48.6l.1 44.2-6.2.1c-4.4 0-6.3-.3-6.4-1.2 0-.6-.1-22.1-.2-47.7l-.2-46.5-2.3-4.3c-4.4-8.2-14.1-16.3-23.3-19.6-4-1.4-4.1-1.5-1.4-1.5 1.7-.1 5.3.5 8.2 1.3zm278 11.1c4.4 3.1 2.8 10.9-2.4 11.9-1.6.2-14.8.4-29.5.3-29.1-.2-28.8-.2-30.2-6-.5-2.1-.1-3.3 1.8-5.2l2.5-2.5h27.8c23.2 0 28.2.3 30 1.5zm-50.3 24.6c3.4 1.6 4.7 5.7 3.1 9.6-2.2 5.1-9 6.1-12.4 1.7-2.8-3.5-2.6-6.9.4-9.9 2.6-2.7 5.1-3.1 8.9-1.4zm49.5.6c1.1 1 2.4 3.2 2.7 4.8 1.1 5.9-5 10.2-11.1 7.9-1.7-.7-4.2-5.2-3.9-7.2.1-.6.2-1.6.3-2.2.2-2 4.6-5 7.2-5 1.5 0 3.6.8 4.8 1.7zm-25.6 17.4c7.2 3.3 4.7 13.9-3.3 14.1-7.6.2-10.5-10.7-3.7-14 2.9-1.4 4.1-1.4 7-.1zm-22.9 19c4.6 3.6 2.8 11.9-2.9 13.3-4.1 1-9.4-2.7-9.5-6.7 0-3.1 2.9-7.5 5.2-8 4.2-.8 4.5-.7 7.2 1.4zm47.8-.6c.9.3 2.2 2 2.9 3.7 1.1 2.6 1 3.5-.6 6.4-1 1.9-2.6 3.4-3.6 3.4-.9 0-2.4.3-3.2.6-2.5.9-6.8-3.7-6.9-7.5-.2-5.9 5.4-9.1 11.4-6.6zm1.2 26.9c4.4 2.8 3.6 9.8-1.3 11.4-2 .6-52.7.9-56.3.3-1.9-.3-4.6-4.5-4.3-6.7.4-3.9 3.3-6.3 7.9-6.6 2.2-.2 14.8-.2 27.9-.2 19.8.2 24.1.5 26.1 1.8zm-246.6 33.1c1 1 1 101.1 0 107-2.6 15.2-14 26.6-30.4 30.4-6.7 1.6-22 1.6-28.6.1-11.7-2.8-20.5-8.6-25.7-17-5.4-8.8-5.4-9.3-5.6-67.2l-.1-53.7 4-.3c8.1-.6 85.8 0 86.4.7z"/><path d="M512 51c-1.3.8-1.5 14.4-1.6 111.7-.1 64 .3 111.5.8 112.5 1.1 2.3 5.1 2.3 6.9.2 2-2.4 2.1-222.1.1-224.1-1.6-1.5-4.1-1.7-6.2-.3zM221.6 161c-.2.3-.2 10.3-.2 22.3.1 12-.3 22.1-.7 22.4-.5.3-10.7.5-22.8.6-15.2 0-21.9.3-22 1.1-.1.6-.2 12.5-.3 26.5-.1 17.5.2 25.5 1 25.8.6.2 10.9.5 23 .6l21.8.2.1 22.5v22.5l26.8.2 26.7.2.1-2.2c0-1.2.1-11.4.2-22.7l.2-20.5 18.5-.2c10.2-.1 20.4-.2 22.8-.2l4.2-.1v-53.8h-20.2c-11.2 0-21.5-.1-23-.1l-2.6-.1v-20.3c0-11.1-.1-21.3-.1-22.7l-.1-2.5h-26.6c-14.6 0-26.7.2-26.8.5zM505.7 469.1c-11.2 2.6-21.1 12.3-24.1 23.6-5.4 20.5 10.1 41.1 31.2 41.4 6.5 0 8.2-.3 13.6-2.6 11.9-5.1 19.7-16.9 19.7-30 0-7.4-.3-9-3.4-15.1-6.8-13.4-22.3-20.6-37-17.3zm16.4 14.5c14.8 7.6 14.4 28.6-.6 35.5-9.7 4.5-22.1-.2-26.2-9.9-2.3-5.6-1.8-12.6 1.2-17.9 2.6-4.4 7.9-8.4 11.9-9 1.1-.2 2.2-.5 2.4-.7.7-.8 8.6.6 11.3 2zM376.2 578.6c-5.4 1.9-7.7 3.8-10.8 9.1-8.4 14 2 31.4 18.6 31.3 4.3 0 11.5-3.2 14.1-6.2 8.1-9.5 7.6-22.6-1.2-30.2-6.4-5.4-13-6.7-20.7-4zM883 73.9c-2.2 2.2-4 4.3-4 4.7 0 .5 2.5 3.4 5.7 6.6l5.6 5.7-15.1 15.2c-12.4 12.4-15.2 15.8-15.2 18.1 0 2.3 3.9 6.7 23 25.8 18.4 18.4 23.6 23 25.7 23 2 0 5.6-2.9 15.9-13.3 7.3-7.3 14.2-14.2 15.4-15.2 2-1.9 2.1-1.8 8 4l6 6 4.6-4.6 4.5-4.6-37.6-37.6C904.8 87 887.6 70 887.4 70c-.3 0-2.3 1.8-4.4 3.9zM8.5 464.5c-1.7.7-4.1 2.5-5.5 4l-2.5 2.7-.2 29.3c-.3 32.1.1 35.3 5 38.9 4 3 14.1 3.4 18.4.7 6.4-4 6.6-5.4 6.6-37.7 0-32.2-.2-33.1-6.6-36.9-3.7-2.2-11.3-2.7-15.2-1zM313.5 692.9c-1.1.5-4 3-6.5 5.5-3.2 3.3-4.9 4.4-6.3 4-8.7-2.7-40.6-3.9-55.7-2.1-1.9.3-4.9.5-6.6.6-3.7.1-8.9 4.9-9.7 8.8-1.2 6.5 4.8 13.3 11.3 12.8 1.4-.2 6.3-.6 11-1.1 11.8-1.1 29-.8 38.3.7l7.7 1.3 3.1 6.5c4.4 9.3 9 23 10.5 31.6.1 1.1 1 6.3 1.9 11.5 2 12 3.1 14.7 6.6 16.5 4.7 2.5 9.3 1.9 12.7-1.4 1.6-1.7 3.1-3.8 3.4-4.8 1.5-5.9-6.2-40.3-12.3-55.1-2.2-5.3-4.1-10-4.2-10.3-.1-.3 1.9-2.7 4.5-5.3 5.5-5.4 6.8-9.8 4.5-14.3-.9-1.6-2.3-3.5-3.1-4.2-2-1.6-8.5-2.3-11.1-1.2zM200.5 711.1c-23.1 5-43.2 17.2-57.8 35.2-9.1 11.1-14.4 26.2-10.4 29.6 4.5 3.6 8.2 1.6 9.6-5.1.6-2.9 2.5-7.8 4.2-10.8 4.4-7.7 18.8-21.5 28.7-27.4 9.4-5.6 24.9-11.2 33.7-12.1 6.6-.6 9.7-3 8.8-6.5-1.3-4.8-5.1-5.5-16.8-2.9zM849 715.4c-1.3 1.3-1.3 4.3 0 5.1.5.3 13.5.6 28.7.6 30.5 0 33.4.5 35.4 5.6.8 1.9 1.2 14.6 1.2 38.5 0 32.2-.2 36-1.7 38.3-3.1 4.7-6 5.1-34.6 5-14.6-.1-27.3 0-28.3.3-1.3.3-1.7 1.2-1.5 3.1l.3 2.6 29.8.3c28.1.2 29.9.1 33.7-1.8 2.4-1.2 4.9-3.6 6.5-6.3l2.5-4.4v-37.4c0-41.9.1-41.4-7.3-47.3l-3.7-3-30-.1c-18.8-.1-30.4.3-31 .9zM129.4 786.6c-6.5 2.7-8.1 8.5-5.7 20.9 3.6 18.9 11.3 33.5 19.2 36 2.7.8 8.4-1 10.6-3.5 2.7-3 3.1-9.6.8-12.8-4.9-6.6-8.9-17.4-9.9-26.7-.3-2.8-1-6.4-1.5-8-1.5-5.1-8.3-8.1-13.5-5.9zM325.2 803.6c-2.2 1.5-2.3 2.1-1.7 8.1.8 8.4.8 14.6 0 20.8-3.3 25.1-17.4 49.7-32.4 56.9-3.9 1.8-4.6 2.6-4.9 5.3-.3 2.5.2 3.5 2.2 4.8 2.4 1.6 2.8 1.6 8-.8 18.7-8.6 36.2-40.3 38.3-69.5.6-9.7-.4-22.4-2-24.5-1.9-2.4-5.1-2.8-7.5-1.1zM225.5 891.9c-4 2.4-5.3 4.1-5.9 7.6-1.1 5.9 4 11.8 11.9 14 11.5 3.2 26 3.7 37.2 1.4 6.6-1.3 10.3-5.2 10.3-10.8 0-7.3-6.6-12.2-14-10.3-5.5 1.4-21.6.7-27-1.1-7.9-2.6-9.4-2.7-12.5-.8z"/></svg>