<svg xmlns="http://www.w3.org/2000/svg" viewBox="0 0 512 512">
  <defs/>
  <path fill="#eceff1" d="M411.407 255.666c0 2.476-.063 4.942-.167 7.387-1.975 42.265-20.793 80.121-49.903 107.016a154.203 154.203 0 01-12.246 10.208 154.888 154.888 0 01-54.281 26.164 156.22 156.22 0 01-39.12 4.953c-13.542 0-26.686-1.724-39.214-4.984-19.706-5.099-37.887-13.97-53.748-25.798a152.493 152.493 0 01-12.288-10.177c-29.34-26.905-48.325-64.928-50.311-107.381a173.877 173.877 0 01-.167-7.387c0-2.779.073-5.538.219-8.286 2.236-42.599 21.597-80.674 51.324-107.444a155.301 155.301 0 0112.413-10.093c15.589-11.389 33.363-19.947 52.588-24.92 12.518-3.25 25.652-4.974 39.183-4.974 13.5 0 26.592 1.714 39.078 4.942 19.445 5.026 37.406 13.709 53.132 25.286a153.301 153.301 0 0112.371 10.125c29.507 26.759 48.691 64.677 50.917 107.078.147 2.747.22 5.505.22 8.285z"/>
  <path fill="#90caf9" d="M254.501 411.38c-85.449-.637-154.536-70.1-154.536-155.707s69.087-155.08 154.536-155.717c-50.206 1.076-90.705 70.382-90.705 155.717 0 85.335 40.499 154.63 90.705 155.707z"/>
  <path fill="#2196f3" d="M411.24 263.053c.104-2.445.167-4.911.167-7.387 0-2.779-.073-5.538-.219-8.286h-55.901c-.982-32.966-7.868-64.145-19.758-90.141a161.57 161.57 0 0024.743-16.937 153.301 153.301 0 00-12.371-10.125 147.282 147.282 0 01-19.529 13.103c-.324-.564-.627-1.149-.951-1.703-9.414-15.945-20.49-28.316-32.652-36.685-12.486-3.229-25.578-4.942-39.078-4.942-13.531 0-26.665 1.724-39.183 4.974-12.141 8.369-23.196 20.73-32.6 36.654-.261.428-.491.878-.742 1.317a147.683 147.683 0 01-19.247-13.05 155.301 155.301 0 00-12.413 10.093l.157.136a163.33 163.33 0 0024.314 16.76c-12.006 26.08-18.954 57.416-19.947 90.548h-55.848a156.04 156.04 0 00-.219 8.286c0 2.476.063 4.942.167 7.387h55.88c.878 32.851 7.596 63.967 19.288 89.984a161.886 161.886 0 00-23.635 16.384l-1.222 1.014a152.319 152.319 0 0012.288 10.177 146.72 146.72 0 0119.654-13.562c.502.899 1.003 1.829 1.526 2.717 9.383 15.924 20.438 28.274 32.569 36.644 12.528 3.26 25.672 4.984 39.214 4.984a156.22 156.22 0 0039.12-4.953c12.141-8.38 23.207-20.73 32.61-36.675.596-1.024 1.16-2.079 1.745-3.114a146.608 146.608 0 0119.926 13.625 154.634 154.634 0 0012.246-10.208l-.773-.648a161.766 161.766 0 00-24.356-16.781c11.588-25.944 18.233-56.914 19.1-89.587h55.93v-.003zM247.394 402.836c-18.62-3.27-36.132-17.543-49.987-41.043-.366-.596-.69-1.233-1.045-1.849 16.06-7.105 33.352-11.358 51.031-12.424v55.316zm0-71.01c-20.145 1.097-39.851 5.935-58.105 14.116-10.626-23.875-16.749-52.515-17.606-82.89h75.711v68.774zm0-84.446h-75.68c.972-30.688 7.325-59.568 18.275-83.516a164.026 164.026 0 0057.405 13.803v69.713zm0-85.408a148.14 148.14 0 01-50.196-12.058c.063-.125.136-.251.209-.376 13.855-23.468 31.346-37.751 49.987-41.022v53.456zm15.673-53.602c18.944 2.978 36.779 17.324 50.854 41.168l.376.69a148.143 148.143 0 01-51.23 11.838V108.37zm0 69.39a163.782 163.782 0 0058.419-13.562c10.856 23.886 17.157 52.641 18.118 83.182h-76.537v-69.62zm50.854 184.033c-14.074 23.854-31.91 38.2-50.854 41.178v-55.545a148.173 148.173 0 0152.076 12.194c-.407.721-.804 1.463-1.222 2.173zm8.275-16.185a163.91 163.91 0 00-59.129-13.876v-68.679h76.568c-.846 30.228-6.907 58.743-17.439 82.555z"/>
  <path fill="#fcd2be" d="M315.922 78.27l38.306 87.874c17.555 40.27 64.451 58.694 104.734 41.133 10.79-4.703 20.001-11.508 27.383-19.723l-.005-.011c17.857-19.879 24.956-48.033 17.437-74.687a25.678 25.678 0 006.437-9.461c5.188-13.183-1.305-28.08-14.494-33.252-13.187-5.2-28.097 1.299-33.275 14.505L441.01 52.2l-14.6-22.091L315.922 78.27z"/>
  <path fill="#fab998" d="M486.339 187.542c17.857-19.879 24.956-48.033 17.437-74.687a25.678 25.678 0 006.437-9.461c5.188-13.183-1.305-28.08-14.494-33.252-13.187-5.2-28.097 1.299-33.275 14.505l-21.435-32.448-17.502 12.269c14.159 10.435 70.465 46.516 62.832 123.074z"/>
  <path fill="#f9ce55" d="M266.323 57.573c15.258 35.003 56.003 51 90.995 35.746l66.189-28.853 2.564 5.883c6.099 13.992 22.387 20.381 36.379 14.281 3.822-9.729 12.945-15.818 22.751-16.255L473.918 42.49c-15.253-34.992-56.003-51-90.995-35.746l-116.6 50.829z"/>
  <path fill="#e2a11e" d="M331.202 29.292l51.721-22.546c34.992-15.253 75.741.754 90.995 35.746l11.284 25.885c-9.806.436-18.929 6.525-22.751 16.255-13.992 6.099-30.28-.289-36.379-14.281l-2.564-5.883-1.309.571c-15.255-34.993-56.004-51.002-90.997-35.747z"/>
  <g fill="#50515b">
    <path d="M409.051 129.804a7.84 7.84 0 01-7.188-4.707l-5.259-12.064a7.837 7.837 0 0114.367-6.263l5.259 12.064a7.837 7.837 0 01-7.179 10.97zM377.687 143.476a7.84 7.84 0 01-7.188-4.707l-5.259-12.064a7.837 7.837 0 0114.367-6.263l5.259 12.064a7.837 7.837 0 01-7.179 10.97z"/>
  </g>
  <path fill="#fff" d="M429.491 185.739a7.838 7.838 0 01-3.516-14.845c10.95-5.487 17.07-13.493 18.188-23.797.467-4.302 4.332-7.426 8.636-6.945a7.834 7.834 0 016.945 8.636c-1.705 15.717-10.954 28.207-26.75 36.12a7.818 7.818 0 01-3.503.831z"/>
  <path fill="#fcd2be" d="M152.562 337.782l24.682 65.686c15.449 41.124-5.372 87.006-46.508 102.46-11.018 4.14-22.368 5.673-33.386 4.917l-.004-.011c-26.659-1.829-51.361-17.087-64.529-41.451a25.696 25.696 0 01-11.209-2.306C8.703 461.23 2.987 446.017 8.85 433.12c5.842-12.917 21.067-18.636 33.98-12.766l-7.218-38.214-4.909-26.021 121.859-18.337z"/>
  <path fill="#fab998" d="M97.344 510.834c-26.659-1.829-51.361-17.087-64.529-41.451a25.696 25.696 0 01-11.209-2.306c-12.904-5.847-18.62-21.06-12.757-33.957 5.842-12.917 21.067-18.636 33.98-12.766l-7.293-18.836 21.18-22.764c-2.893 17.352-18.169 82.459 40.628 132.08z"/>
  <path fill="#50515b" d="M4.163 394.037l11.346 30.2c7.329-6.295 17.925-8.141 27.313-3.88l-6.77-18.021c4.94-1.856 8.932-4.153 12.158-6.758 19.233-15.419 11.081-40.897 11.081-40.897 32.675 14.818 93.433-16.458 93.433-16.458-6.303-16.776-18.81-29.411-33.935-36.275-15.109-6.856-32.853-7.951-49.63-1.649L42.086 310.47C8.545 323.072-8.443 360.483 4.163 394.037z"/>
  <path fill="#393a42" d="M4.163 394.037l11.346 30.2c7.329-6.295 17.925-8.141 27.313-3.88l-6.77-18.021c4.94-1.856 8.932-4.153 12.158-6.758-19.617-32.569-19.476-80.091 10.144-91.219l-16.268 6.111C8.545 323.072-8.443 360.483 4.163 394.037z"/>
  <g fill="#50515b">
    <path d="M107.132 417.786a7.836 7.836 0 01-7.336-5.082l-4.629-12.32a7.836 7.836 0 0114.671-5.512l4.629 12.32a7.836 7.836 0 01-7.335 10.594zM139.161 405.753a7.838 7.838 0 01-7.337-5.083l-4.628-12.32a7.837 7.837 0 0114.673-5.51l4.628 12.32a7.837 7.837 0 01-7.336 10.593z"/>
  </g>
  <path fill="#fff" d="M117.127 474.512c-10.29 0-19.678-3.361-27.694-10.009a7.837 7.837 0 0110.005-12.065c7.98 6.616 17.946 8.098 29.625 4.409a7.833 7.833 0 019.833 5.112 7.835 7.835 0 01-5.112 9.833c-5.75 1.817-11.325 2.72-16.657 2.72z"/>
</svg>
