<svg xmlns="http://www.w3.org/2000/svg" viewBox="0 0 2890.23 806">
  <path fill="#412c91" d="M427.75 806c-42.66 0-63.13-19.24-72.79-35.37s-10.71-32.92-10.71-39.38v-95.87q-9.48-3.25-18.66-7.28c-.67 27.55-6.14 66.29-28.64 92.25-14.53 16.76-33.82 25.89-57.36 27.13h-.84c-28.55 0-49.17-7.83-61.3-23.27a52.71 52.71 0 01-10.9-28.52 64.61 64.61 0 01-14.24 1.62 53 53 0 01-42.71-20.9c-9.84-12.69-15.06-30.14-15.09-50.49-.84-38 18.44-68.27 55.76-87.57 18.89-9.77 39.78-15.45 58.25-18.75a240.82 240.82 0 01-16.16-37.6H122v11.25H40.5v-19.69C10.28 466.77 0 441.12 0 427.75v-45c0-13.37 10.28-39 40.5-45.81v-19.69h83.75v11.25h68.11c.4-1.2.81-2.39 1.23-3.58a124 124 0 11151.93-150.23l1-.33V67.75a72.24 72.24 0 019.79-34c9-15.41 28-33.78 67-33.78s57.91 18.37 67 33.78a72.24 72.24 0 019.79 34v106.61A241.17 241.17 0 01538.42 191l60.2-60.2-7.12-7.12L650.86 68l4.14 4.12 42.75-42.75L810.38 142l-42.75 42.75 6.75 6.75-58.63 58.63-9-9-62.46 62.45c.08.16.15.32.22.48 26.88-21.36 60.61-29.56 80.24-29.56s37.07 3.68 51.79 10.93c20.62 10.16 45.21 32.16 45.21 79.32 0 17.76-4.6 30.25-9.39 38.43 4.78 8.48 9.39 21.53 9.39 40.32 0 48.88-32.67 81.67-89.32 92 13.53 11 24.07 25.24 24.07 43v38.25c0 30.62-17.68 52-43 52h-22.25v15.5c0 8.62-1.57 21.16-9 31.92-8 11.5-20.86 17.83-36.2 17.83H596.5c-26.92 0-43-18.6-43-49.75v-15.5H538c-9 0-18.36-3.38-26.75-7.77v70.52a78.62 78.62 0 01-10.72 39.17c-9.67 16.12-30.15 35.33-72.78 35.33z"/>
  <path fill="#0994dc" d="M805.75 443.5c0 69.75-76.5 83.25-135 78.75 0 0 69.75 20.25 69.75 56.25v38.25c0 22.5-11.25 36-27 36h-38.25v31.5C675.25 700 668.5 718 646 718h-49.5c-22.5 0-27-18-27-33.75v-31.5H538c-18 0-42.75-22.5-42.75-22.5V731.5c0 4.5 0 58.5-67.5 58.5s-67.5-54-67.5-58.75v-107.6a225.29 225.29 0 01-51.46-22c1.71 18.95 7.87 125.79-70 129.89-43 0-64-19.75-54-60.75-40 25-74.25 4-74.25-45-1.76-73.92 86-90 124.26-93.52A225.92 225.92 0 01204.21 466H106v11.25H56.5v-18c-33.75 0-40.5-24.75-40.5-31.5v-45c0-6.75 6.75-31.5 40.5-31.5v-18h51.75v11.25h96a224.79 224.79 0 0111.49-31.92 108 108 0 11117.2-115.92 224.1 224.1 0 0129.56-10.45V67.75S362.5 16 423.25 16 484 67.75 484 67.75v118.47a225.29 225.29 0 0157.09 24.69l80.16-80.16-6.75-6.75 36-33.75 4.5 4.5L697.75 52l90 90L745 184.75l6.75 6.75-36 36-9-9-81.86 81.85a224.72 224.72 0 0113.7 32.11c23.45-29.88 64.87-42 86.16-42 11.25 0 81 0 81 74.25 0 28-13.5 38.25-13.5 38.25s13.5 10.54 13.5 40.54z"/>
  <circle cx="425.5" cy="405.25" r="191.25" fill="#fff"/>
  <path fill="none" stroke="#0994dc" stroke-linecap="round" stroke-miterlimit="10" stroke-width="7" d="M299.5 531.25l78.75-81"/>
  <circle cx="325.38" cy="476.13" r="19.13" fill="none" stroke="#0994dc" stroke-linecap="round" stroke-miterlimit="10" stroke-width="7"/>
  <path fill="none" stroke="#0994dc" stroke-linecap="round" stroke-miterlimit="10" stroke-width="7" d="M450.25 404.13A28.13 28.13 0 11422.13 376a28.12 28.12 0 0128.12 28.13z"/>
  <circle cx="422.13" cy="404.13" r="14.62" fill="#0994dc"/>
  <path fill="none" stroke="#0994dc" stroke-miterlimit="10" stroke-width="7" d="M459.25 367l62.39-64.62"/>
  <path fill="#fff" d="M461.5 71.19V185s0 32.69-38.37 32.69S384.75 185 384.75 185V71.19s0-32.69 38.38-32.69 38.37 32.69 38.37 32.69z"/>
  <circle cx="225.25" cy="205" r="83.5" fill="none" stroke="#fff" stroke-miterlimit="10" stroke-width="18"/>
  <path fill="none" stroke="#fff" stroke-miterlimit="10" stroke-width="40" d="M225.25 151v108M171.25 205h108"/>
  <path fill="none" stroke="#0894dc" stroke-linecap="round" stroke-miterlimit="10" stroke-width="10" d="M445.75 79h-13.5M445.75 103.75h-13.5M445.75 128.5h-13.5M445.75 153.25h-13.5M445.75 178h-13.5"/>
  <path fill="none" stroke="#0894dc" stroke-linecap="round" stroke-miterlimit="10" stroke-width="22" d="M423.25 65.5v225"/>
  <path fill="none" stroke="#fff" stroke-linecap="round" stroke-miterlimit="10" stroke-width="7" d="M423.25 72.25v162"/>
  <path fill="#fff" d="M76.75 353.5V457H88v-11.25h155.25v-76.5H88V353.5H76.75z"/>
  <rect width="22.5" height="58.5" x="40.75" y="376" fill="#fff" rx="10"/>
  <path fill="#0994dc" d="M88 380.5v54h195.75c31.5 0 33.75-47.25 33.75-56.25 0 9-6.75 40.5-27 40.5H151V380.5z"/>
  <path fill="#fff" d="M731.5 198.25l-87.75-87.75-6.75 6.75L652.75 133l-131.5 130.91 54 54.09 131.5-131 18 18 6.75-6.75zM700 83.5l56.25 56.25-6.75 6.75-9-9-21.23 21.23a5 5 0 01-7 0L681 127.53a5 5 0 010-7.06l21.22-21.22-9-9z"/>
  <path fill="#0994dc" d="M659.57 139.82L697.75 178s-106 106.14-128.25 128.41-57.28-9.55-63.64-15.91c6.36 6.36 33.41 23.86 47.73 9.55 17.5-17.5 88.48-88.64 88.48-88.64l-27.05-27z"/>
  <path fill="none" stroke="#0994dc" stroke-linecap="round" stroke-miterlimit="10" stroke-width="10" d="M597.63 206.13l14.62 14.62M577.38 227.5L592 242.13M557.13 248.88l14.62 14.62"/>
  <path fill="#fff" d="M724.75 495.25c-67.5 0-112.5-92.25-112.5-92.25s45-92.25 112.5-92.25c74.25 0 65.25 85.5 42.75 92.25 22.5 6.75 31.5 92.25-42.75 92.25z"/>
  <path fill="none" stroke="#0994dc" stroke-linecap="round" stroke-miterlimit="10" stroke-width="10" d="M697.75 310.75v31.5M724.75 353.5l-27-11.25M666.25 371.5l58.5-18M742.75 394l-76.5-22.5M657.25 418.75l85.5-24.75M697.75 436.75l-40.5-18M697.75 470.5v-33.75"/>
  <rect width="69.75" height="200.25" x="587.5" y="499.75" fill="#fff" rx="10"/>
  <path fill="none" stroke="#fff" stroke-linecap="round" stroke-miterlimit="10" stroke-width="5" d="M571.75 634.75h-39.5a10 10 0 01-10-10V575a10 10 0 0110-10h39.5M673 565h39.5a10 10 0 0110 10v49.75a10 10 0 01-10 10H673"/>
  <path fill="none" stroke="#0994dc" stroke-linecap="round" stroke-miterlimit="10" stroke-width="10" d="M603.25 567.25h38.25M603.25 632.5h38.25"/>
  <circle cx="622.38" cy="599.88" r="5.62" fill="#0994dc"/>
  <circle cx="604.38" cy="586.38" r="5.62" fill="#0994dc"/>
  <circle cx="640.38" cy="586.38" r="5.62" fill="#0994dc"/>
  <circle cx="640.38" cy="613.38" r="5.62" fill="#0994dc"/>
  <circle cx="604.38" cy="613.38" r="5.62" fill="#0994dc"/>
  <path fill="#fff" d="M472.75 569.92v162s0 36-45 36-44.92-36.42-44.92-36.42v-162z"/>
  <path fill="#0994dc" d="M461.5 652.75v76.52s0 27-33.77 27-33.73-27-33.73-27v-76.5zM461.5 643.75V583c0-27-28.35-29.25-33.75-29.25 5.4 0 24.75 9 24.75 24.75 0 14.85-.45 65.25-.45 65.25z"/>
  <path fill="#fff" stroke="#fff" stroke-linecap="round" stroke-miterlimit="10" stroke-width="16" d="M218.5 560.5c20.25-2.25 33.75-2.25 49.5 2.25"/>
  <path fill="none" stroke="#fff" stroke-linecap="round" stroke-miterlimit="10" stroke-width="8" d="M198.25 562.75C166.75 565 142 592 142 605.5"/>
  <path fill="#fff" stroke="#fff" stroke-linecap="round" stroke-miterlimit="10" stroke-width="16" d="M139.75 623.5c0 9 4.5 22.5 9 27"/>
  <path fill="none" stroke="#fff" stroke-linecap="round" stroke-miterlimit="10" stroke-width="16" d="M277 553.75l-9 9"/>
  <path fill="#fff" stroke="#fff" stroke-linecap="round" stroke-miterlimit="10" stroke-width="16" d="M281.9 611.54c-2.79-20.18-6.1-33.27-14.32-47.44"/>
  <path fill="none" stroke="#fff" stroke-linecap="round" stroke-miterlimit="10" stroke-width="8" d="M284.68 631.72c5.54 31.09-14.56 61.71-27.65 65"/>
  <path fill="#fff" stroke="#fff" stroke-linecap="round" stroke-miterlimit="10" stroke-width="16" d="M240.13 703.33c-8.72 2.21-22.91 1.16-28.38-2.1"/>
  <rect width="18" height="20.68" x="389.14" y="420.01" fill="#0994dc" rx="5" transform="rotate(45 398.141 430.355)"/>
  <path fill="#0994dc" d="M453.41 378.1l3.33-13.54 5.04 4.85-8.37 8.69z"/>
  <g fill="#666">
    <path d="M1102.25 210.5l91.5 275.5 91.5-275.5h110.5v359h-74l6-279.5-92 279.5h-80l-95-282.5 7.5 282.5h-77v-359zM1543.74 425.5q0 45.51 16 68t65 22.5q49 0 64.75-22.5t15.75-67.5V210.5h75.5v230q0 6.51-.5 12.5a185.21 185.21 0 01-4.75 37.25 96.44 96.44 0 01-57 66.75 190.06 190.06 0 01-52.25 13.5q-10.5 1.5-21 2t-20.5.5q-9.49 0-19.75-.5t-20.75-2a181.41 181.41 0 01-53-13 97 97 0 01-42-33 91.94 91.94 0 01-15.5-34.25 197.26 197.26 0 01-4.5-37.25q-.49-6-.5-12.5v-230h75zM1853.74 569.5v-359h184.5a79.84 79.84 0 009 .5 82.26 82.26 0 019 .5 214.42 214.42 0 0169.25 14q32.25 12.51 42.25 55 8.49 38.5-4.75 64.75t-45.75 45.25q36 17 48 44t3.5 67q-9 41-40.75 54.25a180.58 180.58 0 01-67.75 13.75h-206.5zm75.5-211.5h110.5q21.5.51 35.5-8.25t14-32.75q.5-23.49-14-32.5t-35.5-9l-110.5-.5zm147.25 139.75q13.74-9.24 13.75-33.25 0-24.5-13.75-33.5t-35.75-9l-111.5-.5V506h111.5q21.99 1 35.75-8.25zM2317.23 295.25q-20.51 21.75-23 61.75l209-.5V419h-209.5a154.25 154.25 0 004.25 36.5 73.4 73.4 0 0017.25 32q11.51 13.5 27.25 16.75a158.93 158.93 0 0032.25 3.25h4.5l124-.5v62.5h-127.5A306.56 306.56 0 012317 564q-28.24-5.49-53.25-25.5-30-24.5-42-59.75a243.44 243.44 0 01-13-72.25q-.49-8-.25-15.5t.75-15q5.51-85 46.25-125t122.25-40l125.5-.5V273h-124q-41.52.51-62.02 22.25zM2686.23 274.5q-24.51.51-41.25 10.25T2628.23 322q0 21 14.25 30t33.25 9l100-.5c3.66.34 7.5.5 11.5.5s8 .17 12 .5a163 163 0 0134.5 5.75 74.3 74.3 0 0148 43.75 117.81 117.81 0 017.5 32q.49 5 .75 9.75c.16 3.17.25 6.42.25 9.75q-1 62.51-34.5 84.75t-91 22.25h-201v-64h189q25 .51 43.25-8t14.75-38.5q-2.51-23.49-17.5-29t-35.5-6l-89-.5q-55.5.51-87.75-22.25T2549.23 319q1-62.49 34.75-85.25t91.25-22.75l197.5-.5v64z"/>
  </g>
</svg>
