<svg xmlns="http://www.w3.org/2000/svg" viewBox="0 0 821.75 806">
  <path fill="#262a6b" d="M427.75 806c-42.66 0-63.13-19.24-72.79-35.38-9.67-16.15-10.71-32.92-10.71-39.38v-95.87c-6.32-2.17-12.54-4.6-18.66-7.28-.67 27.55-6.13 66.29-28.63 92.25-14.53 16.76-33.83 25.89-57.36 27.13l-.42.02h-.42c-28.55 0-49.17-7.83-61.3-23.27-6.28-8-9.92-17.54-10.9-28.53-4.79 1.08-9.54 1.63-14.24 1.63-17.09 0-32.25-7.42-42.71-20.9-9.84-12.69-15.06-30.15-15.09-50.5-.84-37.99 18.44-68.27 55.76-87.57 18.89-9.77 39.79-15.45 58.25-18.75a240.825 240.825 0 0 1-16.15-37.62H122v11.25H40.5v-19.69C10.28 466.77 0 441.12 0 427.75v-45c0-13.37 10.28-39.02 40.5-45.81v-19.69h83.75v11.25h68.11c.4-1.2.81-2.39 1.22-3.58-22.72-5.98-43.38-18.35-59.57-35.94-21.13-22.94-32.76-52.77-32.76-83.98 0-68.37 55.63-124 124-124 31.45 0 61.45 11.79 84.46 33.21 17.7 16.47 30.03 37.44 35.81 60.48.33-.11.65-.22.98-.33V67.75c0-1.77.27-17.75 9.79-33.97C365.34 18.37 384.3 0 423.25 0s57.91 18.37 66.96 33.78C499.73 50 500 65.98 500 67.75v106.61c13.25 4.4 26.1 9.95 38.42 16.58l60.2-60.2-7.12-7.12 59.36-55.65 4.14 4.14 42.75-42.75 112.63 112.63-42.75 42.75 6.75 6.75-58.63 58.63-9-9-62.46 62.45c.08.16.15.32.22.49 26.88-21.36 60.61-29.56 80.24-29.56s37.07 3.68 51.79 10.93c20.63 10.16 45.21 32.17 45.21 79.32 0 17.76-4.6 30.25-9.39 38.43 4.78 8.48 9.39 21.53 9.39 40.32 0 48.88-32.67 81.67-89.32 92.02 13.53 10.99 24.07 25.24 24.07 42.98v38.25c0 30.62-17.68 52-43 52h-22.25v15.5c0 8.62-1.57 21.16-9.05 31.92-8 11.5-20.85 17.83-36.2 17.83h-49.5c-26.92 0-43-18.6-43-49.75v-15.5H538c-8.99 0-18.36-3.38-26.75-7.77v70.52c0 6.41-1.04 23.05-10.72 39.17-9.67 16.12-30.15 35.33-72.78 35.33Z"/>
  <path fill="#6790cb" d="M805.75 443.5c0 69.75-76.5 83.25-135 78.75 0 0 69.75 20.25 69.75 56.25v38.25c0 22.5-11.25 36-27 36h-38.25v31.5C675.25 700 668.5 718 646 718h-49.5c-22.5 0-27-18-27-33.75v-31.5H538c-18 0-42.75-22.5-42.75-22.5V731.5c0 4.5 0 58.5-67.5 58.5s-67.5-54-67.5-58.75v-107.6a225.29 225.29 0 0 1-51.46-22.04c1.71 18.95 7.87 125.79-70.04 129.89-43 0-64-19.75-54-60.75-40 25-74.25 4-74.25-45-1.76-73.92 85.96-90.02 124.26-93.52A225.919 225.919 0 0 1 204.21 466H106v11.25H56.5v-18c-33.75 0-40.5-24.75-40.5-31.5v-45c0-6.75 6.75-31.5 40.5-31.5v-18h51.75v11.25h95.96c3.04-11 6.9-21.66 11.49-31.92-55.18-4.83-98.45-51.15-98.45-107.58 0-59.65 48.35-108 108-108s103.43 43.91 107.69 99.66c9.53-4.14 19.4-7.64 29.56-10.45V67.75S362.5 16 423.25 16 484 67.75 484 67.75v118.47a225.294 225.294 0 0 1 57.09 24.69l80.16-80.16-6.75-6.75 36-33.75 4.5 4.5L697.75 52l90 90L745 184.75l6.75 6.75-36 36-9-9-81.86 81.85c5.36 10.27 9.95 21 13.7 32.11 23.45-29.88 64.87-41.96 86.16-41.96 11.25 0 81 0 81 74.25 0 28-13.5 38.25-13.5 38.25s13.5 10.5 13.5 40.5Z"/>
  <circle cx="425.5" cy="405.21" r="191.25" fill="#fff"/>
  <path fill="#fff" d="M461.5 71.19v113.77s0 32.69-38.37 32.69-38.38-32.69-38.38-32.69V71.19s0-32.69 38.38-32.69 38.37 32.69 38.37 32.69Z"/>
  <path fill="none" stroke="#fff" stroke-miterlimit="10" stroke-width="40" d="M225.25 151v108M171.25 205h108"/>
  <path fill="#c2d9f1" stroke="#c2d9f1" stroke-linecap="round" stroke-miterlimit="10" stroke-width="22" d="M423.25 65.5v225"/>
  <path fill="none" stroke="#fff" stroke-linecap="round" stroke-miterlimit="10" stroke-width="7" d="M423.25 72.25v162"/>
  <path fill="#fff" d="M76.75 353.5V457H88v-11.25h155.25v-76.5H88V353.5H76.75z"/>
  <rect width="22.5" height="58.5" x="40.75" y="376" fill="#fff" rx="10" ry="10"/>
  <path fill="#fff" d="m731.5 198.25-87.75-87.75-6.75 6.75L652.75 133l-131.5 130.91 54 54.09 131.5-131 18 18 6.75-6.75zM700 83.5l56.25 56.25-6.75 6.75-9-9-21.23 21.23a4.985 4.985 0 0 1-7.04 0l-31.2-31.2a4.991 4.991 0 0 1 0-7.06l21.22-21.22-9-9L700 83.5ZM724.75 495.25c-67.5 0-112.5-92.25-112.5-92.25s45-92.25 112.5-92.25c74.25 0 65.25 85.5 42.75 92.25 22.5 6.75 31.5 92.25-42.75 92.25Z"/>
  <rect width="69.75" height="200.25" x="587.5" y="499.75" fill="#fff" rx="10" ry="10"/>
  <path fill="none" stroke="#fff" stroke-linecap="round" stroke-miterlimit="10" stroke-width="5" d="M571.75 634.75h-39.5c-5.52 0-10-4.48-10-10V575c0-5.52 4.48-10 10-10h39.5M673 565h39.5c5.52 0 10 4.48 10 10v49.75c0 5.52-4.48 10-10 10H673"/>
  <path fill="#fff" d="M472.75 569.92v162s0 36-45 36-44.92-36.42-44.92-36.42v-162l89.92.42Z"/>
  <g stroke="#fff" stroke-linecap="round" stroke-miterlimit="10">
    <path fill="#fff" stroke-width="16" d="M218.5 560.5c20.25-2.25 33.75-2.25 49.5 2.25"/>
    <path fill="none" stroke-width="8" d="M198.25 562.75C166.75 565 142 592 142 605.5"/>
    <path fill="#fff" stroke-width="16" d="M139.75 623.5c0 9 4.5 22.5 9 27"/>
    <path fill="none" stroke-width="16" d="m277 553.75-9 9"/>
    <path fill="#fff" stroke-width="16" d="M281.9 611.54c-2.78-20.18-6.1-33.27-14.32-47.44"/>
    <path fill="none" stroke-width="8" d="M284.68 631.72c5.54 31.09-14.56 61.71-27.65 65.02"/>
    <path fill="#fff" stroke-width="16" d="M240.13 703.33c-8.73 2.21-22.92 1.16-28.38-2.1"/>
  </g>
  <path fill="#fff" d="M291.56 373.54c-1.3 3.39-1.58 7.4-1.95 10.88-.17 1.63-.22 3.26-.19 4.9.06 3.37.32 6.74-.09 10.1l.86-6.38c-.23 1.61-.61 3.16-1.23 4.66l2.42-5.73a18.16 18.16 0 0 1-2 3.44l3.75-4.86c-1.09 1.41-2.35 2.63-3.75 3.73l4.86-3.75c-2.31 1.76-4.87 3.11-7.54 4.25l5.73-2.42c-5.65 2.37-11.64 3.85-17.51 5.53l-21.52 6.18c9.84 5.59 19.68 11.18 29.52 16.76-.51-1.27-.86-2.56-1.06-3.92l.86 6.38c-.16-1.36-.16-2.7 0-4.06l-.86 6.38.07-.45-43.87 5.73c.78 1.14 1.44 2.33 2 3.59l-2.42-5.73c.75 1.79 1.25 3.62 1.52 5.54l-.86-6.38c.22 1.78.22 3.55.01 5.34l.86-6.38c-.06.41-.12.81-.2 1.22-1 3.19-1.14 6.38-.43 9.57.14 3.19 1.09 6.17 2.85 8.92 3.26 5.06 8.25 9.78 14.34 11.03 6.51 1.33 9.83 1.27 16.29.12 3.31-.59 6.56-2.05 9.42-3.81 2.8-1.51 5.04-3.57 6.73-6.18 2.12-2.32 3.55-5.04 4.3-8.16 1-3.19 1.14-6.38.43-9.57-.14-3.19-1.09-6.17-2.85-8.92-3.3-5.12-8.22-9.64-14.34-11.03l-6.38-.86c-4.33.01-8.37 1.11-12.11 3.28-.48.29-.96.55-1.48.78l5.73-2.42c-.79.31-1.58.52-2.42.65l6.38-.86c-.84.09-1.66.09-2.5 0l6.38.86c-.28-.04-.55-.09-.82-.15l16.76 29.52c.5-2.71.85-5.48 1.12-8.21a19.965 19.965 0 0 0-.03-4.31c-.28-2.73-.6-5.51-1.15-8.21-.29-1.42-.74-2.78-1.29-4.12-1.31-3.18-2.46-6.47-4.42-9.32l-3.75-4.86-4.86-3.75-5.73-2.42c-3.19-1-6.38-1.14-9.57-.43-2.17 0-4.18.55-6.06 1.64-2.03.57-3.8 1.6-5.3 3.09-1.8 1.07-3.24 2.5-4.31 4.31-2.12 2.32-3.55 5.04-4.3 8.16-.52 3.49-1.32 7.1-.95 10.66s.61 7.22 1.94 10.52c.74 3.12 2.17 5.84 4.3 8.16 1.69 2.61 3.94 4.67 6.73 6.18 5.68 3 12.18 4.23 18.49 2.42s12.27-3.52 18.41-5.29c5.37-1.54 10.81-2.95 16.11-4.73 3.98-1.34 7.9-2.99 11.7-4.76 2.04-.95 4-2.06 5.81-3.4 2.29-1.69 4.79-3.46 6.9-5.48s4.09-4.82 5.73-7.07c2.43-3.34 4.11-7.38 5.17-11.34 1.28-4.77 1.67-9.91 1.55-14.86-.08-3.15-.28-6.3.12-9.43l-.86 6.38c.21-1.4.53-2.75 1.04-4.08 1-3.19 1.14-6.38.43-9.57-.14-3.19-1.09-6.17-2.85-8.92-1.51-2.8-3.57-5.04-6.18-6.73-2.32-2.12-5.04-3.55-8.16-4.3l-6.38-.86c-4.33.01-8.37 1.11-12.11 3.28l-4.86 3.75a23.963 23.963 0 0 0-6.17 10.59Z"/>
  <g fill="#c2d9f1" stroke="#c2d9f1" stroke-miterlimit="10">
    <path stroke-linecap="round" stroke-width="10" d="M445.75 79h-13.5M445.75 103.75h-13.5M445.75 128.5h-13.5M445.75 153.25h-13.5M445.75 178h-13.5"/>
    <path d="M88 380.5v54h195.75c31.5 0 33.75-47.25 33.75-56.25 0 9-6.75 40.5-27 40.5H151V380.5H88ZM659.57 139.82 697.75 178S591.77 284.14 569.5 306.41c-22.27 22.27-57.28-9.55-63.64-15.91 6.36 6.36 33.41 23.86 47.73 9.55 17.5-17.5 88.48-88.64 88.48-88.64l-27.05-27.05 44.55-44.55Z"/>
    <path stroke-linecap="round" stroke-width="10" d="m597.62 206.12 14.63 14.63M577.38 227.5 592 242.12M557.12 248.88l14.63 14.62M697.75 310.75v31.5M724.75 353.5l-27-11.25M666.25 371.5l58.5-18M742.75 394l-76.5-22.5M657.25 418.75l85.5-24.75M697.75 436.75l-40.5-18M697.75 470.5v-33.75M603.25 567.25h38.25M603.25 632.5h38.25"/>
    <circle cx="622.38" cy="599.88" r="5.62"/>
    <circle cx="604.38" cy="586.38" r="5.62"/>
    <circle cx="640.38" cy="586.38" r="5.62"/>
    <circle cx="640.38" cy="613.38" r="5.62"/>
    <circle cx="604.38" cy="613.38" r="5.62"/>
    <path d="M461.5 652.75v76.52s0 26.98-33.77 26.98-33.73-27-33.73-27v-76.5h67.5ZM461.5 643.75V583c0-27-28.35-29.25-33.75-29.25 5.4 0 24.75 9 24.75 24.75 0 14.85-.45 65.25-.45 65.25h9.45Z"/>
    <path stroke-linecap="round" stroke-width="7" d="m295.2 536.26 62.36-63.39"/>
    <g stroke-linecap="round" stroke-width="7">
      <path d="M318.83 487.32a9.18 9.18 0 0 1 9.18 9.18M309.65 496.5a9.18 9.18 0 0 1 9.18-9.18M318.83 505.68a9.18 9.18 0 0 1-9.18-9.18M328.01 496.5a9.18 9.18 0 0 1-9.18 9.18"/>
    </g>
    <path stroke-linecap="round" stroke-width="7" d="M373.4 440.3c8.7 0 15.75 7.05 15.75 15.75M357.65 456.05c0-8.7 7.05-15.75 15.75-15.75M373.4 471.8c-8.7 0-15.75-7.05-15.75-15.75M389.15 456.05c0 8.7-7.05 15.75-15.75 15.75"/>
    <circle cx="373.4" cy="456.05" r="8.19"/>
    <rect width="10.08" height="11.58" x="354.93" y="464.95" rx="5" ry="5" transform="rotate(45 359.966 470.733)"/>
    <path stroke-width="7" d="m455.06 371.77 62.57-64.8"/>
    <path d="m449.22 382.22 3.33-13.55 5.04 4.86-8.37 8.69z"/>
  </g>
  <g fill="#292d6a">
    <path d="M324.9 371.66c4.26 0 8.23.84 11.9 2.5 3.67 1.67 6.91 3.96 9.72 6.87 2.81 2.91 5.01 6.3 6.6 10.16 1.59 3.86 2.38 8.04 2.38 12.52v32.19h-12.1v-32.19c0-2.67-.48-5.17-1.43-7.51s-2.27-4.39-3.94-6.15a18.31 18.31 0 0 0-5.92-4.15c-2.27-1-4.67-1.5-7.21-1.5s-4.92.5-7.14 1.5c-2.22 1-4.17 2.39-5.85 4.15s-2.99 3.82-3.94 6.15c-.95 2.34-1.43 4.84-1.43 7.51v32.19h-12.1v-32.19c0-2.67-.48-5.17-1.43-7.51s-2.27-4.39-3.94-6.15a18.31 18.31 0 0 0-5.92-4.15c-2.27-1-4.67-1.5-7.21-1.5s-4.92.5-7.14 1.5c-2.22 1-4.17 2.39-5.85 4.15s-2.99 3.82-3.94 6.15c-.95 2.34-1.43 4.84-1.43 7.51v32.19h-12.1v-32.19c0-4.48.79-8.66 2.38-12.52 1.58-3.86 3.76-7.25 6.53-10.16s6.01-5.2 9.72-6.87c3.72-1.67 7.66-2.5 11.83-2.5 5.08 0 9.72 1.17 13.94 3.51 4.22 2.34 7.73 5.51 10.54 9.51 2.81-4.01 6.35-7.18 10.61-9.51 4.26-2.34 8.88-3.51 13.87-3.51ZM420.1 371.66v32.05c0 4.39-.79 8.54-2.38 12.45-1.59 3.91-3.79 7.35-6.6 10.3a30.974 30.974 0 0 1-9.72 6.94c-3.67 1.67-7.64 2.5-11.9 2.5s-8.12-.83-11.83-2.5a29.876 29.876 0 0 1-9.72-6.94c-2.77-2.95-4.94-6.39-6.53-10.3-1.59-3.91-2.38-8.06-2.38-12.45v-32.05h12.1v32.05c0 2.67.48 5.2 1.43 7.58.95 2.39 2.27 4.46 3.94 6.22a18.41 18.41 0 0 0 5.85 4.15c2.22 1 4.6 1.5 7.14 1.5s4.94-.5 7.21-1.5c2.27-1 4.24-2.38 5.92-4.15 1.68-1.77 2.99-3.84 3.94-6.22.95-2.38 1.43-4.91 1.43-7.58v-32.05h12.1ZM465.18 374.45c3.67 1.67 6.89 3.96 9.66 6.87 2.76 2.91 4.94 6.3 6.53 10.16 1.58 3.86 2.38 8.04 2.38 12.52s-.79 8.54-2.38 12.45c-1.59 3.91-3.76 7.35-6.53 10.3a30.17 30.17 0 0 1-9.66 6.94c-3.67 1.67-7.64 2.5-11.9 2.5s-8.12-.83-11.83-2.5a30.703 30.703 0 0 1-9.79-6.94c-2.81-2.95-5.01-6.39-6.6-10.3-1.59-3.91-2.38-8.06-2.38-12.45v-57.81h12.1v25.76h18.5c4.26 0 8.23.84 11.9 2.5Zm-11.9 49.01c2.54 0 4.92-.5 7.14-1.5 2.22-1 4.17-2.38 5.85-4.15 1.68-1.76 2.99-3.84 3.94-6.22.95-2.38 1.43-4.91 1.43-7.58s-.48-5.17-1.43-7.51-2.27-4.39-3.94-6.15a18.568 18.568 0 0 0-5.85-4.15c-2.22-1-4.6-1.5-7.14-1.5h-18.5v19.32c0 2.67.48 5.2 1.43 7.58.95 2.39 2.26 4.46 3.94 6.22 1.68 1.77 3.65 3.15 5.92 4.15 2.27 1 4.67 1.5 7.21 1.5ZM534.34 413.3l8.57 9.01-4.22 4.43c-2.9 3.05-6.21 5.39-9.93 7.01-3.72 1.62-7.62 2.43-11.7 2.43s-7.98-.81-11.7-2.43c-3.72-1.62-7.03-3.96-9.93-7.01-2.99-3.15-5.21-6.7-6.66-10.66-1.45-3.96-2.18-7.99-2.18-12.09s.72-8.11 2.18-12.02c1.45-3.91 3.67-7.44 6.66-10.59 2.99-3.15 6.37-5.51 10.13-7.08 3.76-1.57 7.59-2.36 11.49-2.36s7.73.79 11.49 2.36c3.76 1.57 7.14 3.93 10.13 7.08l4.22 4.44-33.86 35.63c3.44 1.81 7.09 2.41 10.95 1.79 3.85-.62 7.23-2.45 10.13-5.51l4.22-4.43Zm-30.33-23.04c-3.63 3.82-5.44 8.39-5.44 13.74 0 2.96.63 5.77 1.9 8.44 1.09-1.14 2.74-2.89 4.96-5.22 2.22-2.34 4.58-4.82 7.07-7.44s4.9-5.13 7.21-7.51c2.31-2.38 4.1-4.24 5.37-5.58-3.45-1.81-7.09-2.43-10.95-1.86-3.85.57-7.23 2.39-10.13 5.44ZM600.98 371.66v12.73h-36.86c-1.72 0-3.17.62-4.35 1.86-1.18 1.24-1.77 2.77-1.77 4.58s.59 3.36 1.77 4.65c1.18 1.29 2.63 1.93 4.35 1.93h24.48c2.54 0 4.92.5 7.14 1.5 2.22 1 4.17 2.36 5.85 4.08 1.68 1.72 2.99 3.74 3.94 6.08.95 2.34 1.43 4.84 1.43 7.51s-.48 5.18-1.43 7.51c-.95 2.34-2.27 4.39-3.94 6.15a18.41 18.41 0 0 1-5.85 4.15c-2.22 1-4.6 1.5-7.14 1.5h-36.72v-12.74h36.72c1.81 0 3.31-.62 4.49-1.86s1.77-2.81 1.77-4.72c0-1.81-.59-3.34-1.77-4.58-1.18-1.24-2.67-1.86-4.49-1.86h-24.48c-2.54 0-4.92-.5-7.14-1.5-2.22-1-4.15-2.38-5.78-4.15-1.63-1.76-2.92-3.81-3.88-6.15-.95-2.34-1.43-4.84-1.43-7.51s.48-5.17 1.43-7.51 2.24-4.36 3.88-6.08c1.63-1.72 3.56-3.08 5.78-4.08s4.6-1.5 7.14-1.5h36.86Z"/>
  </g>
  <ellipse cx="227.08" cy="205.92" fill="#6790cb" rx="65.92" ry="61.81"/>
  <path fill="#c2d9f1" stroke="#bfdfff" stroke-miterlimit="10" d="M222.53 275.76c-2.85 0-5.71-.05-8.56.01-2.9.07-4.29-1.19-4.22-4.18.09-4.02-.06-8.04.05-12.06.08-2.77-1.18-4.27-3.71-5.15-2.69-.94-5.32-2.06-7.89-3.28-2.21-1.05-4.02-.83-5.74.93-2.88 2.95-5.86 5.8-8.73 8.77-2.05 2.13-3.86 2.08-5.92-.05-4.11-4.26-8.32-8.44-12.55-12.58-1.99-1.95-2.1-3.71-.05-5.68 2.96-2.87 5.8-5.86 8.77-8.73 1.87-1.81 2.11-3.68.97-6-1.21-2.46-2.3-5-3.16-7.6-.89-2.7-2.45-3.97-5.35-3.88-4.01.13-8.03-.02-12.05.05-2.83.05-4.03-1.31-4.01-4.06.04-6.03.02-12.06 0-18.09 0-2.6 1.2-3.91 3.86-3.88 4.02.04 8.04-.09 12.05.05 2.85.1 4.53-1.01 5.46-3.74.91-2.7 2.04-5.33 3.28-7.9 1.07-2.23.8-4.03-.95-5.73-2.87-2.81-5.7-5.67-8.52-8.53-2.51-2.55-2.56-3.65-.15-6.1 4.15-4.22 8.4-8.36 12.53-12.59 1.96-2.01 3.75-2.02 5.7-.03 2.81 2.88 5.74 5.63 8.49 8.56 1.98 2.11 3.99 2.31 6.53 1.03 2.44-1.23 5.03-2.2 7.6-3.14 2.38-.86 3.6-2.33 3.54-4.96-.1-4.02.05-8.04-.05-12.06-.07-2.92 1.12-4.33 4.1-4.31 5.92.05 11.84.05 17.76 0 2.93-.03 4.24 1.27 4.17 4.23-.1 4.02.05 8.04-.05 12.06-.07 2.61 1.07 4.13 3.47 5.01 2.77 1.02 5.51 2.14 8.19 3.38 2.07.96 3.81.85 5.5-.76 3.05-2.91 6.18-5.73 9.23-8.62 2.73-2.59 3.77-2.67 6.35-.12 4.14 4.09 8.19 8.27 12.36 12.32 2.12 2.06 2.17 3.86.01 5.92-2.91 2.77-5.65 5.72-8.55 8.5-1.99 1.9-2.2 3.84-.99 6.27 1.22 2.45 2.25 5.02 3.15 7.61.88 2.55 2.41 3.77 5.17 3.7 4.01-.11 8.03.04 12.05-.05 3-.07 4.18 1.36 4.15 4.25-.06 5.92-.04 11.85 0 17.78.01 2.77-1.25 4.07-4.05 4.02-4.02-.07-8.04.07-12.05-.05-2.73-.08-4.33 1.04-5.23 3.61-.94 2.69-2.02 5.34-3.26 7.9-1.14 2.34-.85 4.2 1.02 5.99 2.89 2.79 5.64 5.73 8.55 8.5 2.11 2.01 2.27 3.81.12 5.92-4.32 4.21-8.56 8.49-12.79 12.79-1.86 1.88-3.55 1.88-5.45.03-3.09-3.01-6.35-5.85-9.43-8.88-1.85-1.82-3.68-2.11-6-.98-2.56 1.24-5.21 2.31-7.89 3.26-2.56.91-3.67 2.52-3.59 5.25.13 4.02-.02 8.04.05 12.06.05 2.82-1.28 4.07-4.03 4.04-3.07-.04-6.13 0-9.2 0Zm.19-29.25c22.79-.33 43.8-18.54 43.82-43.16.02-24.59-20.85-42.98-43.73-43.21-23.57-.24-43.23 19.61-43.23 43.28 0 23.42 19.73 43.12 43.14 43.09Z"/>
  <path fill="#fff" stroke="#fff" stroke-miterlimit="10" stroke-width="2" d="M303.03 203.42v11.11c0 5.09-4.42 9.64-9.56 9.78-3.17.08-6.35.14-9.51-.02-2.53-.13-3.48 1.59-3.87 3.4-.24 1.11.37 2.72 1.14 3.66 2.53 3.09 5.7 5.72 7.88 9.01 2.56 3.86 1.62 9.22-1.62 12.56-4.79 4.93-9.63 9.82-14.58 14.59-4.1 3.94-10.67 3.9-14.98.08-2.52-2.23-4.9-4.63-7.5-6.76-.8-.65-2.45-1.22-3.14-.83-1.38.79-3.1 2.14-3.35 3.49-.51 2.87-.15 5.9-.16 8.86-.02 6.28-4.83 11.3-11.14 11.41-6.55.11-13.11.11-19.67 0-6.34-.1-11.17-5.09-11.2-11.35-.01-2.54-.17-5.09.04-7.62.22-2.6-.71-3.89-3.18-4.9-2.47-1.01-3.25.67-4.47 1.81-1.92 1.81-3.72 3.76-5.63 5.59-4.35 4.16-11.12 4.24-15.44.05-4.86-4.71-9.65-9.5-14.35-14.37-4.15-4.3-4.02-11.11.15-15.45 2.05-2.14 4.3-4.1 6.21-6.34.73-.85 1.28-2.4 1.03-3.41-.45-1.78-1.27-3.61-3.82-3.47-2.74.14-5.5.03-8.25.03-6.66 0-11.62-4.82-11.68-11.52-.06-6.35-.07-12.7 0-19.05.07-6.7 4.99-11.47 11.71-11.48 2.96 0 5.94.19 8.87-.11 1.06-.11 2.55-1.19 2.87-2.15.42-1.24.37-3.18-.36-4.15-1.7-2.26-3.85-4.22-5.97-6.12-4.22-3.77-5.67-11.04-.08-16.14 4.84-4.41 9.46-9.09 13.91-13.91 4.9-5.3 12.03-3.93 15.66.03 1.86 2.02 4.02 3.78 5.77 5.89 1.48 1.78 2.96 1.48 4.77.87 1.85-.63 2.31-1.85 2.25-3.65-.1-2.85-.03-5.71-.02-8.57.02-6.29 4.82-11.31 11.13-11.42 6.55-.12 13.11-.11 19.67 0 6.48.1 11.21 5.11 11.21 11.66 0 2.96-.18 5.95.1 8.88.11 1.07 1.15 2.57 2.1 2.91 1.23.44 3.19.42 4.17-.3 2.69-1.99 5.07-4.41 7.51-6.73 3.78-3.6 10.38-4.61 14.97.25 4.72 5 9.59 9.86 14.58 14.59 4.98 4.72 3.62 11.64-.11 15.21-1.99 1.9-3.77 4.03-5.88 5.78-1.83 1.52-1.72 3.04-1.04 5.01.73 2.08 2.21 2.23 4.01 2.19 2.75-.07 5.5-.03 8.25-.02 6.31.03 10.6 4.34 10.6 10.66v10.48Zm-80.49 72.34c3.07 0 6.13-.03 9.2 0 2.76.03 4.08-1.22 4.03-4.04-.07-4.02.08-8.04-.05-12.06-.09-2.73 1.03-4.34 3.59-5.25 2.68-.95 5.33-2.02 7.89-3.26 2.33-1.13 4.16-.84 6 .98 3.08 3.03 6.33 5.87 9.43 8.88 1.91 1.86 3.6 1.85 5.45-.03 4.23-4.29 8.47-8.58 12.79-12.79 2.16-2.1 1.99-3.91-.12-5.92-2.91-2.77-5.66-5.71-8.55-8.5-1.86-1.8-2.15-3.65-1.02-5.99 1.24-2.56 2.32-5.22 3.26-7.9.9-2.57 2.5-3.69 5.23-3.61 4.01.12 8.03-.02 12.05.05 2.81.05 4.07-1.24 4.05-4.02-.03-5.93-.05-11.85 0-17.78.03-2.89-1.15-4.31-4.15-4.25-4.02.09-8.04-.06-12.05.05-2.76.08-4.29-1.15-5.17-3.7-.89-2.59-1.93-5.16-3.15-7.61-1.21-2.43-1-4.37.99-6.27 2.91-2.77 5.65-5.72 8.55-8.5 2.15-2.06 2.1-3.86-.01-5.92-4.17-4.06-8.22-8.23-12.36-12.32-2.58-2.55-3.62-2.47-6.35.12-3.05 2.9-6.18 5.72-9.23 8.62-1.69 1.61-3.43 1.72-5.5.76a110.13 110.13 0 0 0-8.19-3.38c-2.4-.89-3.53-2.4-3.47-5.01.11-4.02-.04-8.04.05-12.06.07-2.96-1.24-4.26-4.17-4.23-5.92.06-11.84.05-17.76 0-2.98-.02-4.17 1.39-4.1 4.31.1 4.02-.05 8.04.05 12.06.07 2.63-1.15 4.1-3.54 4.96-2.58.93-5.16 1.9-7.6 3.14-2.54 1.28-4.55 1.08-6.53-1.03-2.75-2.92-5.69-5.68-8.49-8.56-1.95-2-3.73-1.98-5.7.03-4.14 4.24-8.38 8.37-12.53 12.59-2.41 2.45-2.36 3.54.15 6.1 2.82 2.86 5.65 5.72 8.52 8.53 1.74 1.71 2.02 3.51.95 5.73-1.23 2.57-2.37 5.2-3.28 7.9-.92 2.73-2.61 3.84-5.46 3.74-4.01-.14-8.03 0-12.05-.05-2.67-.03-3.87 1.28-3.86 3.88.01 6.03.03 12.06 0 18.09-.02 2.75 1.18 4.1 4.01 4.06 4.02-.07 8.04.08 12.05-.05 2.9-.09 4.46 1.18 5.35 3.88.86 2.6 1.96 5.14 3.16 7.6 1.14 2.32.9 4.2-.97 6-2.96 2.87-5.8 5.86-8.77 8.73-2.04 1.98-1.93 3.73.05 5.68 4.23 4.15 8.43 8.32 12.55 12.58 2.06 2.13 3.87 2.18 5.92.05 2.86-2.97 5.85-5.82 8.73-8.77 1.72-1.76 3.53-1.98 5.74-.93 2.57 1.22 5.21 2.34 7.89 3.28 2.53.89 3.79 2.38 3.71 5.15-.11 4.02.04 8.04-.05 12.06-.07 2.99 1.32 4.24 4.22 4.18 2.85-.06 5.71-.01 8.56-.01Z"/>
  <path fill="#c2d9f1" d="M222.72 246.51c-23.41.03-43.14-19.67-43.14-43.09 0-23.68 19.66-43.53 43.23-43.28 22.87.24 43.75 18.62 43.73 43.21-.02 24.62-21.03 42.82-43.82 43.16Zm.17-78.5c-20.12.47-35.19 15.59-35.22 35.11-.03 20.08 15.01 35.05 34.87 35.37 20.44.32 35.59-16.95 35.97-34.55.41-18.8-16.12-35.89-35.62-35.94Z"/>
</svg>
