<svg xmlns="http://www.w3.org/2000/svg" viewBox="0 0 512 512">
  <defs/>
  <path fill="#2196f3" d="M432 512H80c-35.344 0-64-28.656-64-64V224l240 112 240-112v224c0 35.344-28.656 64-64 64z"/>
  <path fill="#90caf9" d="M400 0H112C94.32 0 80 14.32 80 32v176l176 80 176-80V32c0-17.68-14.32-32-32-32zm-64 160H176c-8.832 0-16-7.168-16-16s7.168-16 16-16h160c8.832 0 16 7.168 16 16s-7.168 16-16 16zm0-64H176c-8.832 0-16-7.168-16-16s7.168-16 16-16h160c8.832 0 16 7.168 16 16s-7.168 16-16 16z" opacity=".4"/>
</svg>
