<svg xmlns="http://www.w3.org/2000/svg" viewBox="0 0 512 512">
  <path fill="#ffcda8" d="M512 256c0 3.594-.073 7.158-.23 10.71a249.351 249.351 0 01-2.1 23.876 254.466 254.466 0 01-13.155 53.311 254.661 254.661 0 01-22.465 46.289 257.117 257.117 0 01-56.289 64.23 252.003 252.003 0 01-23.186 16.865 254.611 254.611 0 01-40.343 21.18 251.242 251.242 0 01-18.087 6.729C310.941 507.507 283.993 512 256 512c-48.421 0-93.686-13.437-132.295-36.801a255.913 255.913 0 01-43.833-33.426 255.41 255.41 0 01-16.405-17.053 256.268 256.268 0 01-39.309-60.008C8.662 331.713 0 294.87 0 256 0 114.615 114.615 0 256 0c120.174 0 220.996 82.798 248.55 194.456.324 1.296.637 2.591.94 3.897A257.416 257.416 0 01512 256z"/>
  <path fill="#ff5b47" d="M494.762 78.751c5.902 41.124-44.877 82.433-113.421 92.27-23.872 3.426-46.752 2.582-66.674-1.706l-.011-.008c-37.297-8.033-64.27-28.135-68.116-54.933-5.902-41.124 44.887-82.445 113.43-92.281s128.891 15.534 134.792 56.658z"/>
  <g fill="#e53e2d">
    <path d="M370.371 94.589c-37.455 5.375-71.116-5.528-82.9-25.098-1.056 4.019-1.344 8.109-.757 12.197 3.812 26.561 42.788 42.943 87.056 36.59 44.268-6.353 77.064-33.034 73.253-59.596-.586-4.088-2.012-7.932-4.157-11.492-5.803 22.096-35.039 42.024-72.495 47.399z"/>
    <path d="M320.577 91.766l-3.646 21.308s-36.033 30.928-2.276 56.231c-37.297-8.033-64.27-28.135-68.116-54.933-5.902-41.124 44.887-82.445 113.43-92.281 0 0-65.426 42.071-39.392 69.675z"/>
  </g>
  <path fill="#ff5b47" d="M512 256c0 3.594-.073 7.158-.23 10.71a249.351 249.351 0 01-2.1 23.876 254.466 254.466 0 01-13.155 53.311c-10.083-.439-19.738-1.682-28.776-3.626h-.01c-37.303-8.035-64.272-28.139-68.117-54.941-5.653-39.403 40.741-78.994 104.939-90.875.324 1.296.637 2.591.94 3.897A257.49 257.49 0 01512 256z"/>
  <g fill="#e53e2d">
    <path d="M511.77 266.71a249.351 249.351 0 01-2.1 23.876c-14.775.209-28.411-2.152-39.675-6.552-16.771-6.541-28.233-17.586-30.208-31.389-.596-4.086-.303-8.171.752-12.194 6.06 10.073 17.92 17.847 33.102 22.288 11.223 3.282 24.263 4.744 38.129 3.971z"/>
    <path d="M473.642 262.729v.01l-3.647 21.295s-36.028 30.929-2.267 56.236c-37.303-8.035-64.272-28.139-68.117-54.941-5.653-39.403 40.741-78.994 104.939-90.875.324 1.296.637 2.591.94 3.897-16.405 12.165-52.266 42.717-31.848 64.378z"/>
  </g>
  <path fill="#ff5b47" d="M315.706 394.037c-26.514 31.984-91.222 22.086-144.53-22.107-18.566-15.391-33.302-32.914-43.5-50.557l-.001-.015c-19.087-33.033-22.3-66.52-5.021-87.363 26.514-31.984 91.236-22.088 144.545 22.106s75.022 105.952 48.507 137.936z"/>
  <g fill="#e53e2d">
    <path d="M220.454 312.485c-29.131-24.15-43.65-56.415-37.058-78.288-3.687 1.915-6.912 4.449-9.547 7.628-17.125 20.658-3.097 60.541 31.332 89.084s76.222 34.933 93.348 14.275c2.635-3.18 4.528-6.817 5.726-10.796-20.274 10.533-54.671 2.246-83.801-21.903z"/>
    <path d="M189.113 273.687l-18.239 11.605s-47.113-5.939-43.2 36.067c-19.087-33.033-22.3-66.52-5.021-87.363 26.514-31.984 91.236-22.088 144.545 22.106 0-.001-75.106-20.243-78.085 17.585z"/>
  </g>
  <path fill="#ff5b47" d="M252.35 193.018c-9.337 40.482-71.602 60.682-139.076 45.12-23.5-5.42-44.533-14.465-61.565-25.652l-.008-.013C19.816 191.521 1.915 163.04 8 136.659c9.337-40.482 71.614-60.69 139.088-45.127s114.599 61.003 105.262 101.486z"/>
  <g fill="#e53e2d">
    <path d="M130.627 162.897c-36.87-8.504-64.328-30.819-68.256-53.324-2.436 3.367-4.18 7.078-5.107 11.102-6.031 26.146 24.407 55.49 67.984 65.541s83.792-2.997 89.824-29.143c.928-4.024.985-8.124.272-12.218-13.389 18.512-47.847 26.547-84.717 18.042z"/>
    <path d="M85.206 142.294l-11.09 18.557s-44.767 15.84-22.415 51.621c-31.883-20.951-49.785-49.432-43.7-75.813 9.337-40.482 71.614-60.69 139.088-45.127-.001-.001-76.201 15.623-61.883 50.762z"/>
  </g>
  <path fill="#ff5b47" d="M474.049 390.186a257.117 257.117 0 01-56.289 64.23 252.003 252.003 0 01-23.186 16.865 254.342 254.342 0 01-58.431 27.909c-18.025-15.172-28.014-33.688-26.07-52.642 4.221-41.336 63.509-69.13 132.389-62.088 11.003 1.128 21.588 3.072 31.587 5.726z"/>
  <g fill="#e53e2d">
    <path d="M417.761 454.416a252.003 252.003 0 01-23.186 16.865c-24.158-10.762-39.487-28.421-37.606-46.728.418-4.106 1.682-8.004 3.678-11.651 5.632 18.38 27.794 34.565 57.114 41.514z"/>
    <path d="M387.375 442.525l-8.694 19.801s-22.559 11.316-24.451 30.135a251.72 251.72 0 01-18.087 6.729c-18.025-15.172-28.014-33.688-26.07-52.642 4.221-41.336 63.509-69.13 132.389-62.088 0 0-73.665 24.983-55.087 58.065z"/>
  </g>
  <path fill="#ff5b47" d="M123.705 475.199a255.913 255.913 0 01-43.833-33.426 255.41 255.41 0 01-16.405-17.053 256.268 256.268 0 01-39.309-60.008c58.535-24.68 117.164-17.795 134.426 17.209 13.364 27.104-1.745 63.603-34.879 93.278z"/>
  <path fill="#e53e2d" d="M79.872 441.772a255.41 255.41 0 01-16.405-17.053c23.218-16.52 37.073-38.306 35.997-56.696 3.145 2.717 5.684 5.925 7.513 9.634 9.226 18.704-2.56 44.346-27.105 64.115z"/>
</svg>
